<ttFont>
          <CharString index="0">
            rmoveto
            127 100 63 128 hvcurveto
            -86 hlineto
            -85 -64 -33 -77 -105 -49 57 121 -6 vhcurveto
            387 44 hlineto
            183 -79 72 -148 -168 -83 -86 -189 -189 82 -86 169 vhcurveto
            -158 324 rmoveto
            109 11 48 44 99 hhcurveto
            81 54 -42 -111 hvcurveto
            return
          </CharString>
          <CharString index="1">
            57 -40 vlineto
            -18 -17 10 25 hvcurveto
            285 vlineto
            99 -67 58 -133 -125 -88 -50 -96 -9 0 -7 1 -6 vhcurveto
            85 12 hlineto
            40 25 43 94 97 23 -39 -56 vhcurveto
            -58 vlineto
            return
          </CharString>
          <CharString index="2">
            -107 callsubr
            endchar
          </CharString>
          <CharString index="3">
            -106 callgsubr
            endchar
          </CharString>
          <CharString index="4">
            rmoveto
            -105 callgsubr
            endchar
          </CharString>
          <CharString index="5">
            rmoveto
            65 hlineto
            23 2 11 8 15 50 43 -31 56 hhcurveto
            60 25 48 56 hvcurveto
            -65 hlineto
            -88 callgsubr
            return
          </CharString>
          <CharString index="6">
            -97 -66 -57 -74 -65 -44 23 89 vhcurveto
            353 -88 -359 vlineto
            -131 64 -48 100 return
          </CharString>
          <CharString index="7">
            rmoveto
            107 50 96 113 40 hvcurveto
            173 499 rlineto
            -88 hlineto
            -84 -263 rlineto
            -21 -66 -28 -99 0 vvcurveto
            -5 hlineto
            0 -35 106 -22 59 vhcurveto
            -98 263 rlineto
            -93 hlineto
            203 -526 rlineto
            -90 -25 -52 -27 -57 hhcurveto
            -35 hlineto
            return
          </CharString>
          <CharString index="8">
            rmoveto
            169 92 75 190 hvcurveto
            433 -95 -208 vlineto
            -131 -71 -68 -109 -91 -48 47 92 vhcurveto
            268 -95 -263 vlineto
            -157 83 -68 136 86 65 30 66 37 vhcurveto
            7 -46 hlineto
            -126 -58 -53 -106 -88 -67 34 65 vhcurveto
            -95 -8 hlineto
            -120 105 -52 143 vhcurveto
            endchar
          </CharString>
          <CharString index="9">
            131 hlineto
            108 481 rlineto
            8 38 12 74 0 vvcurveto
            5 hlineto
            0 13 -68 10 -44 vhcurveto
            108 -481 rlineto
            131 hlineto
            198 686 rlineto
            -95 hlineto
            -133 -484 rlineto
            -7 -24 -20 -81 0 vvcurveto
            -5 hlineto
            0 -14 72 -7 33 vhcurveto
            -110 484 rlineto
            -136 hlineto
            -106 -484 rlineto
            -3 -14 -17 -91 0 vvcurveto
            -5 hlineto
            0 -19 81 -7 24 vhcurveto
            -138 484 rlineto
            -100 hlineto
            endchar
          </CharString>
          <CharString index="10">
            150 73 83 162 hvcurveto
            463 -88 -271 vlineto
            -111 -69 -63 -86 -54 -40 25 87 vhcurveto
            333 -88 -339 vlineto
            -130 68 -49 103 71 53 23 49 35 vhcurveto
            8 -21 hlineto
            -115 -1 -49 -54 -89 hhcurveto
            -59 -52 24 61 hvcurveto
            -86 -10 hlineto
            return
          </CharString>
          <CharString index="11">
            534 83 -439 226 389 83 -389 211 433 83 -528 hlineto
            return
          </CharString>
          <CharString index="12">
            rmoveto
            61 hlineto
            22 5 15 31 64 hhcurveto
            64 18 -31 -22 3 hvcurveto
            61 hlineto
            55 -34 62 -112 -112 -33 -62 -55 vhcurveto
            return
          </CharString>
          <CharString index="13">
            -101 callgsubr
            54 -89 callsubr
            return
          </CharString>
          <CharString index="14">
            -880 rmoveto
            163 121 56 154 hvcurveto
            hintmask 11101010
            244 -454 -85 164 vvcurveto
            66 73 30 101 vhcurveto
            hintmask 11101100
            -76 callsubr
            hintmask 11101010
            -248 455 93 -176 vvcurveto
            -74 -69 -40 -125 vhcurveto
            hintmask 11110010
            -108 -77 40 84 hvcurveto
            6 2 14 1 vvcurveto
            -94 hlineto
            -3 -1 -10 -7 vvcurveto
            -151 130 -55 153 vhcurveto
            endchar
          </CharString>
          <CharString index="15">
            -85 callsubr
            endchar
          </CharString>
          <CharString index="16">
            rmoveto
            150 58 97 110 hvcurveto
            -85 hlineto
            -87 -33 -47 -90 -99 -42 56 142 vhcurveto
            4 vlineto
            145 45 57 96 92 26 -43 -91 vhcurveto
            90 hlineto
            134 -61 73 -147 -158 -74 -86 -189 -189 72 -86 160 vhcurveto
            endchar
          </CharString>
          <CharString index="17">
            -89 callsubr
            endchar
          </CharString>
          <CharString index="18">
            -735 -107 callsubr
            return
          </CharString>
          <CharString index="19">
            -93 callgsubr
            -71 callsubr
            return
          </CharString>
          <CharString index="20">
            95 284 hlineto
            270 402 rlineto
            -109 hlineto
            -203 -314 rlineto
            -5 hlineto
            -204 314 rlineto
            -115 hlineto
            271 -402 rlineto
            return
          </CharString>
          <CharString index="21">
            89 471 hlineto
            47 vlineto
            4 1 26 -35 364 -484 rlineto
            81 686 -89 -462 hlineto
            -47 vlineto
            -4 -1 -24 32 -362 478 rlineto
            -85 hlineto
            return
          </CharString>
          <CharString index="22">
            -735 -106 callgsubr
            return
          </CharString>
          <CharString index="23">
            62 14 40 49 63 vvcurveto
            -84 hlineto
            -6 -33 -18 -33 -52 -25 rrcurveto
            12 -30 -34 6 -36 hhcurveto
            -131 -82 -64 -113 -58 29 -47 42 -31 hvcurveto
            return
          </CharString>
          <CharString index="24">
            rmoveto
            -96 callsubr
            endchar
          </CharString>
          <CharString index="25">
            451 73 -323 hlineto
            306 407 rlineto
            46 -413 -73 284 vlineto
            -305 -406 rlineto
            return
          </CharString>
          <CharString index="26">
            rmoveto
            75 hlineto
            -81 callgsubr
            return
          </CharString>
          <CharString index="27">
            -735 rmoveto
            123 91 49 113 hvcurveto
            hintmask 11101010
            -47 callgsubr
            hintmask 11101100
            -75 callgsubr
            hintmask 11101010
            -47 callsubr
            hintmask 11110010
            -60 callgsubr
            endchar
          </CharString>
          <CharString index="28">
            -211 hlineto
            -38 -18 19 24 24 18 19 38 hvcurveto
            84 hlineto
            131 83 64 113 51 -21 42 -35 31 hvcurveto
            return
          </CharString>
          <CharString index="29">
            rmoveto
            125 72 69 142 hvcurveto
            487 -95 -492 vlineto
            -83 -36 -42 -66 -65 -36 37 72 vhcurveto
            30 -95 -25 vlineto
            -128 72 -67 124 vhcurveto
            endchar
          </CharString>
          <CharString index="30">
            rmoveto
            90 hlineto
            58 79 -101 callgsubr
            -213 -63 callsubr
            return
          </CharString>
          <CharString index="31">
            96 71 -39 -70 hvcurveto
            -15 93 12 vlineto
            137 -117 56 -146 -147 -120 -58 -126 vhcurveto
            return
          </CharString>
          <CharString index="32">
            rmoveto
            75 65 30 49 36 hvcurveto
            7 hlineto
            return
          </CharString>
          <CharString index="33">
            566 83 -422 hlineto
            413 554 rlineto
            49 -531 -83 386 vlineto
            -412 -554 rlineto
            return
          </CharString>
          <CharString index="34">
            rmoveto
            60 36 43 53 53 -36 43 -60 -60 -36 -43 -53 -53 36 -43 60 hvcurveto
            45 vmoveto
            -30 -21 23 28 28 21 23 30 30 21 -23 -28 -28 -21 -23 -30 hvcurveto
            return
          </CharString>
          <CharString index="35">
            118 434 rmoveto
            -84 -42 40 69 69 42 40 84 84 42 -40 -69 -69 -42 -40 -84 hvcurveto
            return
          </CharString>
          <CharString index="36">
            187 -95 -93 callgsubr
            return
          </CharString>
          <CharString index="37">
            -12 -62 callgsubr
            return
          </CharString>
          <CharString index="38">
            rmoveto
            -100 -39 51 147 hvcurveto
            4 vlineto
            150 40 52 99 96 40 -72 -130 vhcurveto
            -4 vlineto
            -127 -39 -71 -97 vhcurveto
            return
          </CharString>
          <CharString index="39">
            rmoveto
            520 159 vlineto
            152 93 -67 -193 hvcurveto
            -2 vlineto
            -191 -1 -93 -67 -151 hhcurveto
            return
          </CharString>
          <CharString index="40">
            736 -96 callgsubr
            return
          </CharString>
          <CharString index="41">
            751 -74 callgsubr
            -56 callsubr
            -89 callgsubr
            return
          </CharString>
          <CharString index="42">
            -16 0 -57 callgsubr
            return
          </CharString>
          <CharString index="43">
            45 hlineto
            43 88 rlineto
            84 -88 -91 37 vlineto
            endchar
          </CharString>
          <CharString index="44">
            -868 rmoveto
            -96 callsubr
            return
          </CharString>
          <CharString index="45">
            -12 -48 callsubr
            return
          </CharString>
          <CharString index="46">
            rmoveto
            75 hlineto
            48 68 rlineto
            -21 37 45 -10 55 hhcurveto
            159 84 86 189 92 -20 67 -39 45 hvcurveto
            77 108 rlineto
            -74 hlineto
            -49 -69 rlineto
            21 -37 -46 11 -55 hhcurveto
            -159 -84 -86 -189 -93 20 -68 39 -45 hvcurveto
            54 75 rmoveto
            -15 31 -7 44 56 vvcurveto
            5 vlineto
            139 46 58 106 38 30 -8 -16 23 vhcurveto
            -91 -380 rmoveto
            -38 -29 7 16 -23 hvcurveto
            220 308 rlineto
            15 -31 7 -43 -55 vvcurveto
            -5 vlineto
            -139 -46 -58 -106 vhcurveto
            endchar
          </CharString>
          <CharString index="47">
            87 -78 91 hintmask 00000000
            hintmask 11110101
            247 -12 rmoveto
            123 91 49 113 hvcurveto
            hintmask 11101101
            -47 callgsubr
            hintmask 11101110
            -75 callgsubr
            hintmask 11101101
            -47 callsubr
            hintmask 11110101
            -60 callgsubr
            hintmask 11101101
            -41 return
          </CharString>
          <CharString index="48">
            rmoveto
            76 hlineto
            84 129 -1 3 rlineto
            -97 hlineto
            77 -132 rmoveto
            76 hlineto
            84 129 -1 3 rlineto
            -97 hlineto
            return
          </CharString>
          <CharString index="49">
            -46 callgsubr
            95 -603 -68 callsubr
            return
          </CharString>
          <CharString index="50">
            -60 -25 -48 -56 hvcurveto
            return
          </CharString>
          <CharString index="51">
            -22 -3 -18 -31 -64 hhcurveto
            return
          </CharString>
          <CharString index="52">
            -12 -39 callsubr
            return
          </CharString>
          <CharString index="53">
            94 123 rlineto
            -84 hlineto
            -63 -83 rlineto
            31 -53 -66 15 -77 hhcurveto
            -214 -128 -117 -238 -121 33 -90 61 -59 hvcurveto
            56 74 rmoveto
            -34 44 -18 63 89 vvcurveto
            4 vlineto
            195 93 75 151 56 48 -11 -23 39 vhcurveto
            -143 -514 rmoveto
            -56 -47 10 23 -38 hvcurveto
            334 436 rlineto
            33 -44 19 -63 -88 vvcurveto
            84 callgsubr
          </CharString>
          <CharString index="54">
            -101 callgsubr
            -26 -2 callgsubr
            return
          </CharString>
          <CharString index="55">
            39 0 83 241 63 216 83 0 callsubr
            404 98 vstem
            333 686 rmoveto
            -254 -299 -74 -63 74 -324 -65 callgsubr
            245 -345 rmoveto
            -191 -1 -93 -67 -151 hhcurveto
            -159 241 173 63 -173 216 159 hlineto
            152 93 -67 -193 hvcurveto
            endchar
          </CharString>
          <CharString index="56">
            95 -62 callsubr
            return
          </CharString>
          <CharString index="57">
            773 -88 callsubr
            return
          </CharString>
          <CharString index="58">
            -12 -34 callgsubr
            return
          </CharString>
          <CharString index="59">
            81 548 81 return
          </CharString>
          <CharString index="60">
            -189 324 74 -135 vvcurveto
            -51 -53 -27 -65 vhcurveto
            return
          </CharString>
          <CharString index="61">
            178 -6 callsubr
            return
          </CharString>
          <CharString index="62">
            hstemhm
            36 92 -67 86 return
          </CharString>
          <CharString index="63">
            591 -81 callsubr
            return
          </CharString>
          <CharString index="64">
            -107 -152 -21 161 -34 callsubr
            hstemhm
            77 46 callgsubr
            hintmask 11011100
            77 -173 rmoveto
            88 122 hlineto
            63 vlineto
            -16 26 31 -8 36 hhcurveto
            65 57 26 57 38 hvcurveto
            7 hlineto
            hintmask 10111100
            -77 callgsubr
            hintmask 11011100
            -97 -66 -57 -74 -65 -44 23 89 vhcurveto
            353 -88 vlineto
            endchar
          </CharString>
          <CharString index="65">
            -28 -7 -60 -21 -59 vvcurveto
            -38 26 -27 29 -16 vhcurveto
            return
          </CharString>
          <CharString index="66">
            30 hlineto
            36 33 -11 -39 -39 -27 -16 -40 -41 -23 19 36 hvcurveto
            15 -63 -13 vlineto
            return
          </CharString>
          <CharString index="67">
            51 hlineto
            30 9 -8 -16 -19 -16 -5 -25 hvcurveto
            -100 hlineto
            return
          </CharString>
          <CharString index="68">
            73 404 73 return
          </CharString>
          <CharString index="69">
            76 callsubr
            165 hlineto
            96 91 144 -256 rlineto
            102 hlineto
            -191 319 181 207 rlineto
            -109 hlineto
            -223 -258 rlineto
            return
          </CharString>
          <CharString index="70">
            -21 -19 callgsubr
            return
          </CharString>
          <CharString index="71">
            21 0 callgsubr
            return
          </CharString>
          <CharString index="72">
            -6 17 28 -6 24 hhcurveto
            endchar
          </CharString>
          <CharString index="73">
            73 -40 -37 callsubr
            return
          </CharString>
          <CharString index="74">
            79 callsubr
            hintmask 00000000
            hintmask 10101110
            -8 callgsubr
            hintmask 01011110
            -56 callgsubr
            hintmask 10101110
            52 callgsubr
            hintmask 01101110
            return
          </CharString>
          <CharString index="75">
            rmoveto
            90 hlineto
            return
          </CharString>
          <CharString index="76">
            -51 callsubr
            38 132 -28 callgsubr
            return
          </CharString>
          <CharString index="77">
            rmoveto
            44 callgsubr
            endchar
          </CharString>
          <CharString index="78">
            -195 -93 -75 -152 -151 -93 75 195 vhcurveto
            return
          </CharString>
          <CharString index="79">
            96 vstem
            79 hmoveto
            -94 callgsubr
            return
          </CharString>
          <CharString index="80">
            26 18 18 29 28 vvcurveto
            58 -40 46 -79 -79 -40 -46 -58 -29 17 -28 28 -18 vhcurveto
            return
          </CharString>
          <CharString index="81">
            95 -12 81 -48 -21 274 83 260 81 return
          </CharString>
          <CharString index="82">
            rmoveto
            -108 53 vlineto
            return
          </CharString>
          <CharString index="83">
            hstemhm
            64 46 callgsubr
            return
          </CharString>
          <CharString index="84">
            rmoveto
            -14 callgsubr
          </CharString>
          <CharString index="85">
            546 710 rlineto
            -72 hlineto
            return
          </CharString>
          <CharString index="86">
            -118 -117 return
          </CharString>
          <CharString index="87">
            7 -76 rlineto
            74 357 -337 hlineto
            endchar
          </CharString>
          <CharString index="88">
            -89 callgsubr
            9 callgsubr
            return
          </CharString>
          <CharString index="89">
            23 2 11 8 15 hhcurveto
            return
          </CharString>
          <CharString index="90">
            -12 54 callgsubr
            return
          </CharString>
          <CharString index="91">
            -22 callsubr
            -603 -370 rmoveto
            231 56 -80 hlineto
            return
          </CharString>
          <CharString index="92">
            -140 -46 -58 -106 -106 -46 58 140 vhcurveto
            return
          </CharString>
          <CharString index="93">
            47 98 489 98 return
          </CharString>
          <CharString index="94">
            -70 callsubr
            53 132 59 callsubr
            return
          </CharString>
          <CharString index="95">
            240 -76 callgsubr
            return
          </CharString>
          <CharString index="96">
            -182 72 118 73 445 -20 return
          </CharString>
          <CharString index="97">
            -36 callsubr
            70 132 hstem
            return
          </CharString>
          <CharString index="98">
            hintmask 0000000000000000
            return
          </CharString>
          <CharString index="99">
            hstemhm
            18 88 -58 90 -73 88 252 87 -40 87 return
          </CharString>
          <CharString index="100">
            -405 -36 callsubr
            return
          </CharString>
          <CharString index="101">
            73 153 73 return
          </CharString>
          <CharString index="102">
            736 -3 callgsubr
            return
          </CharString>
          <CharString index="103">
            90 51 41 139 139 -51 42 -90 -90 -52 -42 -139 -138 52 -42 90 hvcurveto
            return
          </CharString>
          <CharString index="104">
            -182 rmoveto
            61 callsubr
            hvcurveto
            68 callsubr
            return
          </CharString>
          <CharString index="105">
            -350 21 -21 445 93 -12 -20 24 -20 return
          </CharString>
          <CharString index="106">
            -182 69 -57 57 return
          </CharString>
          <CharString index="107">
            hstem
            79 95 return
          </CharString>
          <CharString index="108">
            41 112 rlineto
            84 -85 -91 34 vlineto
            return
          </CharString>
          <CharString index="109">
            -405 21 -37 callsubr
            return
          </CharString>
          <CharString index="110">
            rlineto
            42 vlineto
            -163 197 rlineto
            -21 hlineto
            -163 -197 rlineto
            -42 vlineto
            137 return
          </CharString>
          <CharString index="111">
            736 -15 callgsubr
            return
          </CharString>
          <CharString index="112">
            0 callsubr
            50 87 100 87 50 95 vstem
            return
          </CharString>
          <CharString index="113">
            hstemhm
            49 93 -76 96 341 93 -75 95 return
          </CharString>
          <CharString index="114">
            603 236 83 -567 -83 236 return
          </CharString>
          <CharString index="115">
            hstemhm
            64 88 -12 87 100 87 -13 88 hintmask 1011110010000000
            return
          </CharString>
          <CharString index="116">
            56 225 40 -40 77 12 -20 hstemhm
            139 63 return
          </CharString>
          <CharString index="117">
            73 55 -60 71 hhcurveto
            92 45 72 0 hvcurveto
            92 vlineto
            0 -57 -72 -80 vhcurveto
            hintmask 01011000
            -73 -55 60 -71 hhcurveto
            -92 -45 -72 0 hvcurveto
            return
          </CharString>
          <CharString index="118">
            -129 200 129 200 rlineto
            -71 hlineto
            -157 -200 rlineto
            return
          </CharString>
          <CharString index="119">
            157 200 -157 200 rlineto
            -71 hlineto
            129 -200 rlineto
            return
          </CharString>
          <CharString index="120">
            97 27 49 66 95 vvcurveto
            54 vlineto
            return
          </CharString>
          <CharString index="121">
            78 31 39 62 85 vvcurveto
            54 vlineto
            return
          </CharString>
          <CharString index="122">
            22 callsubr
            endchar
          </CharString>
          <CharString index="123">
            -106 -46 59 143 hvcurveto
            5 vlineto
            139 46 58 106 105 46 -59 -145 1 vhcurveto
            -142 -1 -46 -58 -105 hhcurveto
            return
          </CharString>
          <CharString index="124">
            206 -18 rlineto
            93 vlineto
            -206 -17 17 197 rlineto
            -88 hlineto
            17 -197 -205 17 rlineto
            -93 vlineto
            205 18 return
          </CharString>
          <CharString index="125">
            258 hmoveto
            40 callsubr
            return
          </CharString>
          <CharString index="126">
            32 callsubr
            526 -20 return
          </CharString>
          <CharString index="127">
            39 21 50 callgsubr
            return
          </CharString>
          <CharString index="128">
            628 -93 callgsubr
            return
          </CharString>
          <CharString index="129">
            -5 16 20 -3 34 hhcurveto
            return
          </CharString>
          <CharString index="130">
            vvcurveto
            74 -51 31 -66 -69 -60 -33 -80 -11 2 -13 0 vhcurveto
            62 25 hlineto
            30 16 26 47 45 10 -28 -20 return
          </CharString>
          <CharString index="131">
            rmoveto
            252 56 -174 hlineto
            9 19 29 20 25 19 rrcurveto
            return
          </CharString>
          <CharString index="132">
            rmoveto
            -86 132 3 callgsubr
            -1 -3 108 -129 rlineto
            return
          </CharString>
          <CharString index="133">
            -10 71 rlineto
            -67 hlineto
            endchar
          </CharString>
          <CharString index="134">
            88 -5 callgsubr
            hlineto
            return
          </CharString>
          <CharString index="135">
            -39 -14 27 28 28 23 28 15 14 hvcurveto
            return
          </CharString>
          <CharString index="136">
            -117 -238 -238 return
          </CharString>
          <CharString index="137">
            -54 -11 44 73 hvcurveto
            8 vlineto
            74 11 44 54 54 11 -44 -74 vhcurveto
            -8 vlineto
            -73 -11 -44 -54 vhcurveto
            return
          </CharString>
          <CharString index="138">
            591 -15 callgsubr
            return
          </CharString>
          <CharString index="139">
            -1 callsubr
            134 -21 return
          </CharString>
          <CharString index="140">
            hstemhm
            47 98 434 97 -93 93 return
          </CharString>
          <CharString index="141">
            -182 57 -28 -21 97 41 return
          </CharString>
          <CharString index="142">
            95 vstem
            45 callgsubr
            return
          </CharString>
          <CharString index="143">
            rmoveto
            95 56 41 139 139 -56 42 -95 -95 -57 -42 -139 -138 57 -42 95 hvcurveto
            return
          </CharString>
          <CharString index="144">
            23 73 rmoveto
            -66 -39 20 60 82 104 16 154 hvcurveto
            -38 vlineto
            -94 -79 -46 -74 vhcurveto
            endchar
          </CharString>
          <CharString index="145">
            67 -173 rmoveto
            88 233 6 hlineto
            -51 35 51 -21 74 hhcurveto
            119 81 84 191 return
          </CharString>
          <CharString index="146">
            -16 -173 95 99 66 callgsubr
            return
          </CharString>
          <CharString index="147">
            95 7 callsubr
            hlineto
            return
          </CharString>
          <CharString index="148">
            71 callgsubr
            -12 -20 return
          </CharString>
          <CharString index="149">
            hstemhm
            67 46 callgsubr
            return
          </CharString>
          <CharString index="150">
            619 rmoveto
            65 hlineto
            return
          </CharString>
          <CharString index="151">
            39 93 293 92 return
          </CharString>
          <CharString index="152">
            42 hlineto
            197 163 rlineto
            21 vlineto
            -197 163 rlineto
            -42 hlineto
            58 -137 rlineto
            return
          </CharString>
          <CharString index="153">
            83 213 195 84 -195 214 -83 -214 -194 -84 194 hlineto
            return
          </CharString>
          <CharString index="154">
            -71 callgsubr
            65 64 53 132 hstem
            7 653 vstem
            return
          </CharString>
          <CharString index="155">
            rmoveto
            77 hlineto
            52 168 -1 3 rlineto
            -100 hlineto
            return
          </CharString>
          <CharString index="156">
            -183 -12 72 405 73 return
          </CharString>
          <CharString index="157">
            773 -93 callgsubr
            return
          </CharString>
          <CharString index="158">
            261 0 97 496 93 return
          </CharString>
          <CharString index="159">
            -34 -19 -54 -14 -33 -4 rrcurveto
            return
          </CharString>
          <CharString index="160">
            68 64 -64 117 return
          </CharString>
          <CharString index="161">
            73 hstem
            111 88 224 88 vstem
            35 hmoveto
            476 79 -325 hlineto
            12 return
          </CharString>
          <CharString index="162">
            -182 rmoveto
            85 25 61 60 hvcurveto
            return
          </CharString>
          <CharString index="163">
            591 rmoveto
            56 28 hlineto
            return
          </CharString>
          <CharString index="164">
            hstemhm
            27 callgsubr
            return
          </CharString>
          <CharString index="165">
            61 36 47 hstemhm
            return
          </CharString>
          <CharString index="166">
            -48 callgsubr
            hintmask 10111101
            return
          </CharString>
          <CharString index="167">
            -32 callsubr
            58 79 57 -79 rlineto
            90 hlineto
            return
          </CharString>
          <CharString index="168">
            20 20 5 9 21 return
          </CharString>
          <CharString index="169">
            88 311 hlineto
            return
          </CharString>
          <CharString index="170">
            323 -67 callsubr
            return
          </CharString>
          <CharString index="171">
            240 -44 callsubr
            return
          </CharString>
          <CharString index="172">
            473 83 -473 hlineto
            endchar
          </CharString>
          <CharString index="173">
            -350 591 132 hstem
            return
          </CharString>
          <CharString index="174">
            97 hlineto
            75 314 rlineto
            return
          </CharString>
          <CharString index="175">
            51 -32 vlineto
            -39 -14 return
          </CharString>
          <CharString index="176">
            58 callsubr
            47 98 216 56 -14 72 159 98 return
          </CharString>
          <CharString index="177">
            137 rlineto
            -42 hlineto
            -197 -163 rlineto
            -21 vlineto
            endchar
          </CharString>
          <CharString index="178">
            -423 -152 -21 896 -20 hstem
            91 78 vstem
            91 return
          </CharString>
          <CharString index="179">
            252 -248 64 118 64 return
          </CharString>
          <CharString index="180">
            -20 hstem
            67 76 callsubr
            return
          </CharString>
          <CharString index="181">
            151 -12 55 106 56 98 55 return
          </CharString>
          <CharString index="182">
            -55 26 -56 78 vhcurveto
            return
          </CharString>
          <CharString index="183">
            88 vstem
            67 hmoveto
            88 return
          </CharString>
          <CharString index="184">
            151 0 138 -129 -21 94 56 190 return
          </CharString>
          <CharString index="185">
            hstemhm
            -14 callsubr
            return
          </CharString>
          <CharString index="186">
            hstemhm
            35 91 275 88 return
          </CharString>
          <CharString index="187">
            -12 6 callgsubr
            return
          </CharString>
          <CharString index="188">
            -183 -208 918 hstem
            214 73 vstem
            return
          </CharString>
          <CharString index="189">
            hlineto
            47 212 rlineto
            -77 hlineto
            -47 -212 rlineto
            return
          </CharString>
          <CharString index="190">
            -735 rmoveto
            72 64 24 59 41 hvcurveto
            7 hlineto
            return
          </CharString>
          <CharString index="191">
            -252 -159 -32 callsubr
            return
          </CharString>
          <CharString index="192">
            -174 -227 -32 callsubr
            return
          </CharString>
          <CharString index="193">
            hstem
            64 46 callgsubr
            vstem
            return
          </CharString>
          <CharString index="194">
            88 -9 callsubr
            return
          </CharString>
          <CharString index="195">
            -173 95 99 -21 return
          </CharString>
          <CharString index="196">
            -405 0 108 return
          </CharString>
          <CharString index="197">
            73 -42 73 hstemhm
            return
          </CharString>
          <CharString index="198">
            hstem
            47 98 200 87 202 98 vstem
            return
          </CharString>
          <CharString index="199">
            -405 735 -20 hstem
            1 276 vstem
            return
          </CharString>
          <CharString index="200">
            112 vhcurveto
            endchar
          </CharString>
        <CharString name=".notdef">
          -182 0 50 600 50 hstem
          0 50 400 50 vstem
          0 vmoveto
          500 700 -500 hlineto
          250 -305 rmoveto
          -170 255 rlineto
          340 hlineto
          -370 -555 rmoveto
          510 vlineto
          170 -255 rlineto
          230 -255 rmoveto
          -170 255 170 255 rlineto
          -370 -555 rmoveto
          170 255 170 -255 rlineto
          endchar
        </CharString>
        <CharString name="A">
          -71 callgsubr
          hstem
          7 653 vstem
          7 hmoveto
          -105 callgsubr
          endchar
        </CharString>
        <CharString name="AE">
          317 0 83 100 83 43 -6 callgsubr
          hstem
          -1 947 vstem
          -1 hmoveto
          -29 callgsubr
        </CharString>
        <CharString name="AEacute">
          317 0 83 100 83 43 -6 callgsubr
          50 132 hstem
          -1 947 vstem
          462 -67 callsubr
          -549 -868 rmoveto
          -29 callgsubr
        </CharString>
        <CharString name="Aacute">
          -71 callgsubr
          50 132 hstem
          7 653 vstem
          296 -67 callsubr
          -375 -868 -103 callsubr
        </CharString>
        <CharString name="Abreve">
          -71 callgsubr
          65 64 hstem
          7 653 vstem
          333 751 -98 callgsubr
          endchar
        </CharString>
        <CharString name="Acircumflex">
          -71 callgsubr
          47 135 hstem
          7 653 vstem
          45 callgsubr
          -285 -868 -103 callsubr
        </CharString>
        <CharString name="Adieresis">
          -71 callgsubr
          87 95 hstem
          197 87 100 87 vstem
          197 -50 callsubr
          -377 -868 -103 callsubr
        </CharString>
        <CharString name="Agrave">
          -71 callgsubr
          50 132 hstem
          7 653 vstem
          296 -43 callgsubr
          -181 -865 -103 callsubr
        </CharString>
        <CharString name="Amacron">
          -71 callgsubr
          86 72 hstem
          7 653 vstem
          181 772 -51 callgsubr
          -174 -844 -103 callsubr
        </CharString>
        <CharString name="Aogonek">
          -16 -182 65 138 66 callgsubr
          hstem
          505 77 vstem
          597 -182 rmoveto
          20 23 5 9 20 hvcurveto
          51 -32 vlineto
          -29 -17 16 29 29 21 26 21 17 hvcurveto
          36 hlineto
          -266 686 rlineto
          -121 hlineto
          -266 -686 rlineto
          98 hlineto
          67 183 rlineto
          318 hlineto
          69 -183 rlineto
          -29 -23 -25 -27 -42 vvcurveto
          -69 50 -21 42 vhcurveto
          -394 448 rmoveto
          80 216 45 122 rlineto
          5 hlineto
          46 -124 80 -214 rlineto
          endchar
        </CharString>
        <CharString name="Aring">
          -71 callgsubr
          25 45 102 45 hstemhm
          238 45 102 45 hintmask 00000000
          hintmask 11111110
          334 711 -73 callsubr
          -327 -756 64 callgsubr
          hintmask 11101110
          -266 686 rlineto
          -121 hlineto
          -70 -420 rmoveto
          80 216 45 122 rlineto
          5 hlineto
          46 -124 80 -214 rlineto
          endchar
        </CharString>
        <CharString name="Aringacute">
          -16 21 -21 183 83 338 88 0 -20 122 45 22 132 hstemhm
          237 45 102 45 hintmask 00000000
          hintmask 11011111
          296 861 -96 callgsubr
          -375 -993 64 callgsubr
          -260 671 rlineto
          hintmask 11011011
          19 17 10 26 29 vvcurveto
          53 -36 43 -60 -60 -36 -43 -53 -29 11 -26 19 -17 vhcurveto
          66 21 rmoveto
          -30 -21 23 28 28 21 23 30 30 21 -23 -28 -28 -21 -23 -30 hvcurveto
          -130 -426 rmoveto
          80 216 rlineto
          hintmask 11101011
          45 122 rlineto
          5 hlineto
          46 -124 80 -214 rlineto
          endchar
        </CharString>
        <CharString name="Atilde">
          -71 callgsubr
          78 104 hstem
          170 -23 callgsubr
          vstem
          170 764 -102 callsubr
          -163 -764 -103 callsubr
        </CharString>
        <CharString name="B">
          -16 0 83 227 83 210 83 hstemhm
          79 95 330 97 -78 97 hintmask 11110100
          79 hmoveto
          331 hlineto
          120 90 54 128 101 -57 55 -76 18 hvcurveto
          4 vlineto
          hintmask 11111000
          65 21 49 58 79 vvcurveto
          101 -77 67 -114 vhcurveto
          -331 hlineto
          95 -293 rmoveto
          210 225 vlineto
          63 42 -32 -72 -63 -45 -43 -68 hvcurveto
          -217 -310 rmoveto
          227 227 vlineto
          hintmask 11110100
          80 42 -38 -78 -81 -45 -30 -70 hvcurveto
          endchar
        </CharString>
        <CharString name="C">
          39 -62 callsubr
          33 callsubr
          hintmask 11101000
          381 -12 rmoveto
          172 123 81 177 hvcurveto
          -93 hlineto
          -119 -79 -58 -123 -160 -76 78 196 vhcurveto
          2 vlineto
          195 1 76 77 159 hhcurveto
          hintmask 11110000
          121 77 -59 -120 hvcurveto
          97 hlineto
          175 -123 85 -172 -220 -114 -117 -238 vhcurveto
          hintmask 11101000
          -238 114 -117 220 vhcurveto
          endchar
        </CharString>
        <CharString name="CR">
          -405 endchar
        </CharString>
        <CharString name="Cacute">
          39 -62 callsubr
          38 132 33 callsubr
          hintmask 11110100
          63 callsubr
          -28 -85 callgsubr
        </CharString>
        <CharString name="Cacute.loclPLK">
          39 -62 callsubr
          38 132 33 callsubr
          hintmask 11110100
          323 4 callsubr
          32 -85 callgsubr
        </CharString>
        <CharString name="Ccaron">
          39 -62 callsubr
          35 135 33 callsubr
          hintmask 11110100
          319 733 -99 callgsubr
          168 -85 callgsubr
        </CharString>
        <CharString name="Ccedilla">
          39 34 callsubr
          25 80 548 81 hstemhm
          47 98 277 72 85 97 -93 93 hintmask 1001111010000000
          381 69 rmoveto
          -160 -76 78 196 hvcurveto
          2 vlineto
          195 1 76 77 159 hhcurveto
          hintmask 1001111100000000
          121 77 -59 -120 hvcurveto
          97 hlineto
          175 -123 85 -172 -220 -114 -117 -238 -224 101 -117 196 -13 vhcurveto
          hintmask 1011111010000000
          -12 -66 rlineto
          -40 callsubr
          hintmask 0101111010000000
          -49 vlineto
          hintmask 1011111010000000
          -12 callgsubr
          hintmask 1001111010000000
          4 25 rlineto
          159 7 111 82 168 vvcurveto
          -93 hlineto
          -119 -79 -58 -123 vhcurveto
          endchar
        </CharString>
        <CharString name="Ccircumflex">
          39 -62 callsubr
          35 135 33 callsubr
          hintmask 11110100
          213 -68 callgsubr
          62 -85 callgsubr
        </CharString>
        <CharString name="Cdotaccent">
          39 -62 callsubr
          75 95 hstemhm
          47 98 172 87 175 97 -93 93 hintmask 11111010
          317 50 callsubr
          64 -880 rmoveto
          172 123 81 177 hvcurveto
          -93 hlineto
          -119 -79 -58 -123 -160 -76 78 196 vhcurveto
          2 vlineto
          195 1 76 77 159 hhcurveto
          hintmask 11111100
          121 77 -59 -120 hvcurveto
          97 hlineto
          175 -123 85 -172 -220 -114 -117 -238 vhcurveto
          hintmask 11111010
          -238 114 -117 220 vhcurveto
          endchar
        </CharString>
        <CharString name="D">
          39 0 83 520 83 0 callsubr
          404 98 vstem
          79 hmoveto
          -58 callsubr
          endchar
        </CharString>
        <CharString name="Dcaron">
          39 0 83 520 83 47 135 0 callsubr
          404 98 vstem
          319 733 -99 callgsubr
          -134 -868 rmoveto
          -58 callsubr
          endchar
        </CharString>
        <CharString name="Dcroat">
          -52 callsubr
        </CharString>
        <CharString name="E">
          -65 callsubr
          0 callsubr
          vstem
          79 hmoveto
          -96 callsubr
          endchar
        </CharString>
        <CharString name="Eacute">
          -65 callsubr
          50 132 0 callsubr
          vstem
          296 -67 callsubr
          -303 -40 callgsubr
        </CharString>
        <CharString name="Ebreve">
          -65 callsubr
          65 64 0 callsubr
          vstem
          333 -66 callsubr
          -254 -751 -83 callsubr
        </CharString>
        <CharString name="Ecaron">
          -65 callsubr
          47 135 0 callsubr
          vstem
          292 733 -99 callgsubr
          -107 -40 callgsubr
        </CharString>
        <CharString name="Ecircumflex">
          -65 callsubr
          47 135 hstem
          79 95 vstem
          186 733 -77 callsubr
          endchar
        </CharString>
        <CharString name="Edieresis">
          -65 callsubr
          87 95 hstemhm
          79 95 23 87 100 87 hintmask 00000000
          hintmask 11111110
          197 -50 callsubr
          hintmask 11111010
          -305 -40 callgsubr
        </CharString>
        <CharString name="Edotaccent">
          -65 callsubr
          87 95 0 callsubr
          116 87 vstem
          290 50 callsubr
          -211 -40 callgsubr
        </CharString>
        <CharString name="Egrave">
          -65 callsubr
          50 132 0 callsubr
          vstem
          296 -43 callgsubr
          -109 -865 -83 callsubr
        </CharString>
        <CharString name="Emacron">
          -65 callsubr
          86 72 0 callsubr
          vstem
          181 772 -51 callgsubr
          -102 -844 -83 callsubr
        </CharString>
        <CharString name="Eng">
          39 32 callsubr
          686 -20 hstemhm
          79 91 384 89 hintmask 10111100
          533 55 callsubr
          747 -89 -462 vlineto
          -47 vlineto
          -4 -1 -24 32 -362 478 rlineto
          -85 -686 89 hlineto
          2 470 rlineto
          16 -1 15 -1 16 vhcurveto
          4 1 10 -11 8 -11 10 -11 rlinecurve
          354 -485 rlineto
          -65 vlineto
          -31 -16 -17 -31 vhcurveto
          -43 hlineto
          hintmask 01111100
          -57 vlineto
          hintmask 10111100
          -35 callsubr
        </CharString>
        <CharString name="Eogonek">
          -16 -182 65 117 -57 callgsubr
          0 callsubr
          276 78 vstem
          548 -182 rmoveto
          21 22 5 9 22 hvcurveto
          68 callsubr
          25 26 26 25 40 60 hvcurveto
          83 -439 226 389 83 -389 211 433 83 -528 -686 434 vlineto
          -41 -21 -22 -30 -43 vvcurveto
          -68 60 -20 38 vhcurveto
          endchar
        </CharString>
        <CharString name="Eth">
          -52 callsubr
        </CharString>
        <CharString name="Euro">
          -12 73 182 65 70 65 182 73 -10 -20 hstemhm
          88 94 hintmask 11110100
          439 -12 rmoveto
          28 27 4 6 27 hvcurveto
          71 vlineto
          -5 -22 -22 -3 -24 hhcurveto
          -123 -105 57 125 -32 hvcurveto
          257 65 -268 hlineto
          -1 11 0 12 0 12 0 12 0 11 12 flex1
          268 65 -257 hlineto
          125 32 105 57 123 hhcurveto
          24 22 -3 -5 22 hvcurveto
          hintmask 11101100
          71 vlineto
          hintmask 11110100
          7 -27 -27 3 -28 hhcurveto
          -186 -122 -92 -163 -34 hvcurveto
          -78 -65 69 hlineto
          -1 -12 0 -11 0 -12 0 -12 0 -12 -11 flex1
          -69 -65 78 hlineto
          -163 34 122 -92 186 hhcurveto
          endchar
        </CharString>
        <CharString name="F">
          -72 21 -21 302 83 218 83 0 callsubr
          vstem
          79 hmoveto
          95 302 355 83 -355 218 391 83 -486 hlineto
          endchar
        </CharString>
        <CharString name="G">
          -26 callsubr
          hstemhm
          47 99 466 95 hintmask 10111100
          370 274 -100 callgsubr
          hintmask 01111100
          -20 callsubr
        </CharString>
        <CharString name="G_tilde.loclGUA">
          -26 callsubr
          66 104 hstemhm
          47 99 79 -23 callgsubr
          60 95 hintmask 1011111110000000
          318 795 rmoveto
          50 43 -31 56 hhcurveto
          60 25 48 56 hvcurveto
          -65 hlineto
          -88 callgsubr
          65 hlineto
          -18 callsubr
          52 -521 -100 callgsubr
          hintmask 0111111110000000
          -20 callsubr
        </CharString>
        <CharString name="Gbreve">
          -26 callsubr
          53 64 55 callgsubr
          388 -66 callsubr
          -18 -477 -100 callgsubr
          hintmask 01111110
          -20 callsubr
        </CharString>
        <CharString name="Gcaron">
          -26 callsubr
          35 135 55 callgsubr
          431 733 rmoveto
          105 135 rlineto
          -90 hlineto
          -57 -79 -58 79 rlineto
          -90 hlineto
          106 -135 rlineto
          23 -459 -100 callgsubr
          hintmask 01111110
          -20 callsubr
        </CharString>
        <CharString name="Gcircumflex">
          -26 callsubr
          35 135 55 callgsubr
          389 812 rmoveto
          -101 callgsubr
          -106 -135 rlineto
          90 hlineto
          39 -459 -100 callgsubr
          hintmask 01111110
          -20 callsubr
        </CharString>
        <CharString name="Gcommaaccent">
          95 -149 91 46 81 -48 -21 274 83 260 81 hstemhm
          47 99 199 88 179 95 hintmask 11011111
          370 274 -100 callgsubr
          hintmask 10111111
          7 -76 rlineto
          74 357 -337 hlineto
          -25 -506 rmoveto
          37 hlineto
          -37 -81 rlineto
          45 hlineto
          43 88 rlineto
          84 -88 vlineto
          endchar
        </CharString>
        <CharString name="Gdotaccent">
          -26 callsubr
          75 95 hstemhm
          47 99 199 87 180 95 hintmask 10111111
          432 868 rmoveto
          -87 -95 87 hlineto
          -62 -499 -100 callgsubr
          hintmask 01111111
          -20 callsubr
        </CharString>
        <CharString name="H">
          39 21 -21 309 83 294 -20 hstem
          79 95 374 31 callgsubr
          endchar
        </CharString>
        <CharString name="Hbar">
          39 21 -21 309 83 134 72 -72 160 hstemhm
          79 95 374 95 hintmask 11011100
          79 hmoveto
          95 309 374 -309 95 526 70 hlineto
          hintmask 11101100
          72 -70 vlineto
          hintmask 11011100
          88 -95 vlineto
          hintmask 11101100
          -88 -374 vlineto
          hintmask 11011100
          88 -95 vlineto
          hintmask 11101100
          -88 -70 vlineto
          hintmask 11011100
          -72 70 vlineto
          95 -134 rmoveto
          134 374 -134 vlineto
          endchar
        </CharString>
        <CharString name="Hcircumflex">
          39 21 -21 309 83 294 -20 67 135 2 callgsubr
          213 -68 callgsubr
          -240 -868 rmoveto
          47 callgsubr
          endchar
        </CharString>
        <CharString name="I">
          -7 callsubr
          hstem
          92 95 vstem
          92 hmoveto
          44 callgsubr
          endchar
        </CharString>
        <CharString name="IJ">
          95 -12 81 -48 0 callgsubr
          hstemhm
          92 95 120 95 203 95 hintmask 00000000
          hintmask 01111100
          92 hmoveto
          44 callgsubr
          hintmask 10111100
          411 -698 -78 callsubr
        </CharString>
        <CharString name="Iacute">
          -405 -10 callsubr
          92 95 vstem
          101 -67 callsubr
          -95 -868 -30 callsubr
        </CharString>
        <CharString name="Iacute_J.loclNLD">
          95 -12 81 -48 0 callgsubr
          70 132 hstemhm
          92 95 120 95 203 95 hintmask 10111110
          101 -67 callsubr
          428 -132 -96 callgsubr
          hintmask 01111110
          -609 -868 rmoveto
          44 callgsubr
          hintmask 10111110
          411 -698 -78 callsubr
        </CharString>
        <CharString name="Ibreve">
          -7 callsubr
          85 64 hstem
          92 95 vstem
          138 -66 callsubr
          -46 -751 -30 callsubr
        </CharString>
        <CharString name="Icircumflex">
          -7 callsubr
          67 135 hstem
          92 95 vstem
          -9 -68 callgsubr
          -5 -868 -30 callsubr
        </CharString>
        <CharString name="Idieresis">
          -7 callsubr
          107 95 hstemhm
          2 87 3 95 2 87 hintmask 00000000
          hintmask 11110100
          2 -50 callsubr
          hintmask 11101000
          -97 -868 -30 callsubr
        </CharString>
        <CharString name="Idotaccent">
          -7 callsubr
          107 95 hstemhm
          92 95 -92 87 hintmask 00000000
          hintmask 11101000
          95 50 callsubr
          hintmask 11110000
          -3 -868 -30 callsubr
        </CharString>
        <CharString name="Igrave">
          -405 -10 callsubr
          92 95 vstem
          101 -43 callgsubr
          99 -865 -30 callsubr
        </CharString>
        <CharString name="Imacron">
          -7 callsubr
          106 72 hstem
          92 95 vstem
          -14 772 -51 callgsubr
          106 -844 -30 callsubr
        </CharString>
        <CharString name="Iogonek">
          -405 -190 65 -51 51 -30 -21 197 0 callgsubr
          hstemhm
          92 95 hintmask 00000000
          hintmask 01011100
          172 -125 rmoveto
          28 callsubr
          30 686 -95 -686 1 hlineto
          hintmask 10011100
          -28 -25 -24 -28 -47 vvcurveto
          -69 55 -21 47 vhcurveto
          hintmask 00111100
          61 callsubr
          hvcurveto
          hintmask 01011100
          51 vlineto
          endchar
        </CharString>
        <CharString name="Itilde">
          -7 callsubr
          98 104 hstem
          -25 65 52 95 50 65 vstem
          -25 764 -102 callsubr
          117 -764 -30 callsubr
        </CharString>
        <CharString name="J">
          -183 -17 callsubr
          hstem
          29 95 203 95 vstem
          225 -12 -78 callsubr
        </CharString>
        <CharString name="Jcircumflex">
          -183 -17 callsubr
          67 135 hstem
          29 95 203 95 vstem
          227 -68 callgsubr
          -108 -880 -78 callsubr
        </CharString>
        <CharString name="K">
          42 callgsubr
          0 callsubr
          -4 callgsubr
          endchar
        </CharString>
        <CharString name="Kcommaaccent">
          -16 76 callgsubr
          686 -20 0 callsubr
          116 88 -4 callgsubr
          211 -916 rmoveto
          -64 callsubr
        </CharString>
        <CharString name="L">
          0 83 603 -20 0 callsubr
          vstem
          -1 callgsubr
          endchar
        </CharString>
        <CharString name="Lacute">
          0 83 603 -20 70 132 0 callsubr
          vstem
          89 -67 callsubr
          -96 -868 rmoveto
          447 83 -352 603 -95 hlineto
          endchar
        </CharString>
        <CharString name="Lcaron">
          0 83 407 196 -91 91 hstemhm
          79 95 146 85 hintmask 10111000
          -1 callgsubr
          hintmask 11011000
          241 -196 rmoveto
          44 hlineto
          hintmask 10111000
          1 callsubr
          endchar
        </CharString>
        <CharString name="Lcommaaccent">
          -149 91 58 83 603 -20 0 callsubr
          85 88 vstem
          -1 callgsubr
          180 -916 rmoveto
          -64 callsubr
        </CharString>
        <CharString name="Ldot">
          0 83 335 108 160 -20 0 callsubr
          177 100 vstem
          -1 callgsubr
          272 -268 -17 callgsubr
          endchar
        </CharString>
        <CharString name="Lslash">
          0 83 603 -20 0 callsubr
          vstem
          79 hmoveto
          447 83 -352 244 hlineto
          167 111 rlineto
          82 vlineto
          -167 -111 rlineto
          277 -95 -340 vlineto
          -74 -49 rlineto
          -81 vlineto
          74 49 rlineto
          endchar
        </CharString>
        <CharString name="M">
          150 0 115 -94 -21 581 105 hstemhm
          79 89 491 95 hintmask 01111000
          79 hmoveto
          89 453 hlineto
          28 -2 100 0 vhcurveto
          6 hlineto
          0 9 -44 8 -22 vhcurveto
          183 -515 rlineto
          79 hlineto
          186 515 rlineto
          9 26 8 40 0 vvcurveto
          7 hlineto
          -2 -128 rlineto
          -453 95 686 -140 vlineto
          -165 -468 rlineto
          hintmask 10111000
          -13 -35 -17 -68 0 vvcurveto
          -4 hlineto
          0 -16 61 -15 42 vhcurveto
          -164 468 rlineto
          -141 hlineto
          endchar
        </CharString>
        <CharString name="N">
          78 callgsubr
          hstem
          89 callgsubr
          vstem
          1 callgsubr
          endchar
        </CharString>
        <CharString name="NULL">
          -683 endchar
        </CharString>
        <CharString name="Nacute">
          39 -10 callsubr
          89 callgsubr
          vstem
          63 callsubr
          -330 -868 rmoveto
          -86 callsubr
          endchar
        </CharString>
        <CharString name="Nacute.loclPLK">
          39 -10 callsubr
          89 callgsubr
          vstem
          323 4 callsubr
          -270 -868 rmoveto
          -86 callsubr
          endchar
        </CharString>
        <CharString name="Ncaron">
          78 callgsubr
          67 135 hstem
          89 callgsubr
          vstem
          319 733 -99 callgsubr
          -134 -868 rmoveto
          -86 callsubr
          endchar
        </CharString>
        <CharString name="Ncommaaccent">
          39 76 callgsubr
          686 -20 hstem
          79 89 149 88 149 89 vstem
          1 callgsubr
          238 -916 rmoveto
          -64 callsubr
        </CharString>
        <CharString name="Ntilde">
          78 callgsubr
          98 104 hstemhm
          79 89 29 -23 callgsubr
          30 89 hintmask 00000000
          hintmask 11111110
          197 764 -102 callsubr
          hintmask 11110010
          -118 -764 rmoveto
          -86 callsubr
          endchar
        </CharString>
        <CharString name="O">
          -51 callsubr
          -28 callgsubr
          389 -12 -107 callgsubr
          endchar
        </CharString>
        <CharString name="OE">
          317 -12 81 -69 80 231 80 215 80 -69 81 hstemhm
          47 98 362 95 hintmask 00000000
          hintmask 10110110
          321 -12 rmoveto
          79 62 29 59 45 hvcurveto
          hintmask 01110110
          -76 439 80 -344 231 282 80 -282 215 337 80 -432 vlineto
          hintmask 01101110
          -76 vlineto
          58 -45 -62 30 -79 hhcurveto
          -172 -102 -117 -238 hvcurveto
          hintmask 10110110
          -238 102 -117 172 vhcurveto
          13 81 rmoveto
          -123 -66 73 201 hvcurveto
          hintmask 01101110
          201 66 73 123 107 66 -73 -201 vhcurveto
          hintmask 10110110
          -201 -66 -73 -107 vhcurveto
          endchar
        </CharString>
        <CharString name="Oacute">
          -31 callsubr
          351 -67 callsubr
          -48 -880 -107 callgsubr
          endchar
        </CharString>
        <CharString name="Oacute.loclPLK">
          -31 callsubr
          351 4 callsubr
          12 -880 -107 callgsubr
          endchar
        </CharString>
        <CharString name="Obreve">
          -51 callsubr
          53 64 -28 callgsubr
          388 -66 callsubr
          1 -763 -107 callgsubr
          endchar
        </CharString>
        <CharString name="Ocircumflex">
          -51 callsubr
          35 135 -28 callgsubr
          241 -68 callgsubr
          42 -880 -107 callgsubr
          endchar
        </CharString>
        <CharString name="Odieresis">
          -51 callsubr
          75 95 hstem
          47 98 107 87 100 87 108 98 vstem
          252 -50 callsubr
          -50 -880 -107 callgsubr
          endchar
        </CharString>
        <CharString name="Ograve">
          -31 callsubr
          351 -43 callgsubr
          146 -877 -107 callgsubr
          endchar
        </CharString>
        <CharString name="Ohorn">
          -51 callsubr
          22 108 78 callsubr
          -74 120 hintmask 00000000
          hintmask 11110100
          778 774 14 callgsubr
          hintmask 11010100
          -72 callgsubr
          hintmask 11011000
          -38 callgsubr
          hintmask 11110100
          57 callgsubr
          hintmask 11011000
          -79 callgsubr
          endchar
        </CharString>
        <CharString name="Ohungarumlaut">
          -31 callsubr
          281 736 -59 callsubr
          -93 -880 -107 callgsubr
          endchar
        </CharString>
        <CharString name="Omacron">
          -51 callsubr
          74 72 -28 callgsubr
          236 772 -51 callgsubr
          153 -856 -107 callgsubr
          endchar
        </CharString>
        <CharString name="Oslash">
          -51 callsubr
          37 -20 -28 callgsubr
          47 -49 17 callgsubr
          -54 callsubr
        </CharString>
        <CharString name="Oslashacute">
          -51 callsubr
          37 -20 21 132 78 callsubr
          hintmask 00000000
          hintmask 11011100
          351 -67 callsubr
          -390 -917 17 callgsubr
          hintmask 11101100
          -54 callsubr
        </CharString>
        <CharString name="Otilde">
          -51 callsubr
          66 104 hstem
          47 98 80 -23 callgsubr
          82 98 vstem
          225 764 -102 callsubr
          164 -776 -107 callgsubr
          endchar
        </CharString>
        <CharString name="P">
          -16 21 -21 263 83 257 83 0 callsubr
          356 96 vstem
          79 hmoveto
          95 263 65 callgsubr
          -334 hlineto
          95 -340 rmoveto
          257 234 61 callgsubr
          endchar
        </CharString>
        <CharString name="Q">
          -51 callsubr
          -28 callgsubr
          559 -130 rmoveto
          134 hlineto
          -148 144 rlineto
          119 47 68 109 173 vvcurveto
          238 -129 117 -214 -214 -128 29 callsubr
          128 -117 214 16 16 1 1 15 vhcurveto
          -47 79 rmoveto
          -151 -93 75 195 hvcurveto
          4 vlineto
          198 1 93 76 150 hhcurveto
          151 93 -76 -198 1 hvcurveto
          84 callgsubr
        </CharString>
        <CharString name="R">
          20 callsubr
          0 callsubr
          379 -28 callsubr
          endchar
        </CharString>
        <CharString name="Racute">
          20 callsubr
          50 132 0 callsubr
          379 96 vstem
          63 callsubr
          -330 -868 rmoveto
          -94 callgsubr
          endchar
        </CharString>
        <CharString name="Rcaron">
          20 callsubr
          47 135 0 callsubr
          379 96 vstem
          319 733 -99 callgsubr
          -134 -868 rmoveto
          -94 callgsubr
          endchar
        </CharString>
        <CharString name="Rcommaaccent">
          39 -149 91 79 50 callgsubr
          0 callsubr
          143 88 148 -31 callgsubr
          -596 rmoveto
          -64 callsubr
        </CharString>
        <CharString name="S">
          -16 -62 callsubr
          6 callsubr
          hintmask 00000000
          hintmask 11100100
          332 -12 rmoveto
          163 121 56 154 hvcurveto
          hintmask 11010100
          244 -454 -85 164 vvcurveto
          66 73 30 101 vhcurveto
          hintmask 11011000
          -76 callsubr
          hintmask 11010100
          -248 455 93 -176 vvcurveto
          -74 -69 -40 -125 vhcurveto
          hintmask 11100100
          -108 -77 40 84 hvcurveto
          6 2 14 1 vvcurveto
          -94 hlineto
          -3 -1 -10 -7 vvcurveto
          -151 130 -55 153 vhcurveto
          endchar
        </CharString>
        <CharString name="Sacute">
          -16 -62 callsubr
          38 132 6 callsubr
          hintmask 11101010
          296 -67 callsubr
          hintmask 11110010
          -50 -93 callsubr
        </CharString>
        <CharString name="Sacute.loclPLK">
          -16 -62 callsubr
          38 132 6 callsubr
          hintmask 11101010
          296 4 callsubr
          hintmask 11110010
          10 -93 callsubr
        </CharString>
        <CharString name="Scaron">
          -16 -62 callsubr
          35 135 6 callsubr
          hintmask 11101010
          292 733 -99 callgsubr
          hintmask 11110010
          146 -93 callsubr
        </CharString>
        <CharString name="Scedilla">
          -16 34 callsubr
          25 80 548 81 hstemhm
          49 93 -76 96 221 72 48 93 -75 95 hintmask 1001101101000000
          337 -182 rmoveto
          47 71 14 67 hvcurveto
          hintmask 1011101101000000
          68 callgsubr
          vhcurveto
          hintmask 1001101101000000
          4 25 rlineto
          145 8 104 58 143 244 -454 -85 164 vvcurveto
          66 73 30 101 vhcurveto
          hintmask 1001101110000000
          -76 callsubr
          hintmask 1001101101000000
          -248 455 93 -176 vvcurveto
          -74 -69 -40 -125 vhcurveto
          hintmask 1001110101000000
          -108 -77 40 84 hvcurveto
          6 2 14 1 vvcurveto
          -94 hlineto
          -3 -1 -10 -7 vvcurveto
          -142 115 -57 141 -6 vhcurveto
          hintmask 1011101101000000
          -12 -66 rlineto
          -40 callsubr
          hintmask 0101101101000000
          -49 vlineto
          hintmask 1001101101000000
          -5 27 36 -3 32 hhcurveto
          endchar
        </CharString>
        <CharString name="Scircumflex">
          -16 -62 callsubr
          35 135 6 callsubr
          hintmask 11101010
          45 callgsubr
          hintmask 11110010
          40 -93 callsubr
        </CharString>
        <CharString name="Scommaaccent">
          -16 -149 91 46 -48 callsubr
          hstemhm
          49 93 -76 96 128 88 125 -63 callgsubr
          -218 rmoveto
          -64 callsubr
        </CharString>
        <CharString name="T">
          -72 21 -21 603 83 hstem
          258 95 vstem
          18 callsubr
          endchar
        </CharString>
        <CharString name="Tbar">
          -72 21 -21 381 72 150 83 hstem
          258 95 vstem
          258 hmoveto
          95 381 105 72 -105 150 236 83 -567 -83 236 -150 -105 -72 105 hlineto
          endchar
        </CharString>
        <CharString name="Tcaron">
          -72 21 -21 603 83 47 135 hstem
          258 95 vstem
          264 733 -99 callgsubr
          100 -868 rmoveto
          40 callsubr
          endchar
        </CharString>
        <CharString name="Thorn">
          -16 21 -21 144 83 257 83 -83 202 hstemhm
          79 95 356 96 hintmask 11101100
          79 hmoveto
          95 144 65 callgsubr
          -239 hlineto
          hintmask 11011100
          119 -95 vlineto
          95 -459 rmoveto
          hintmask 11101100
          257 234 61 callgsubr
          endchar
        </CharString>
        <CharString name="U">
          -37 callgsubr
          2 callgsubr
          360 -12 rmoveto
          -103 callgsubr
          endchar
        </CharString>
        <CharString name="Uacute">
          -11 callgsubr
          63 callsubr
          -49 -880 rmoveto
          -103 callgsubr
          endchar
        </CharString>
        <CharString name="Ubreve">
          -37 callgsubr
          85 64 2 callgsubr
          360 -66 callsubr
          -763 vmoveto
          -103 callgsubr
          endchar
        </CharString>
        <CharString name="Ucircumflex">
          -37 callgsubr
          67 135 2 callgsubr
          213 -68 callgsubr
          41 -880 rmoveto
          -103 callgsubr
          endchar
        </CharString>
        <CharString name="Udieresis">
          -37 callgsubr
          107 95 5 callsubr
          224 -50 callsubr
          -51 -880 rmoveto
          -103 callgsubr
          endchar
        </CharString>
        <CharString name="Ugrave">
          -11 callgsubr
          323 -43 callgsubr
          145 -877 rmoveto
          -103 callgsubr
          endchar
        </CharString>
        <CharString name="Uhorn">
          -58 callgsubr
          endchar
        </CharString>
        <CharString name="Uhungarumlaut">
          -11 callgsubr
          253 736 -59 callsubr
          -94 -880 rmoveto
          -103 callgsubr
          endchar
        </CharString>
        <CharString name="Umacron">
          -37 callgsubr
          106 72 2 callgsubr
          208 772 -51 callgsubr
          152 -856 rmoveto
          -103 callgsubr
          endchar
        </CharString>
        <CharString name="Uogonek">
          39 -182 65 105 54 callgsubr
          0 callsubr
          153 78 143 95 vstem
          429 -3 callsubr
          27 28 20 11 20 12 15 hvcurveto
          136 19 79 81 160 vvcurveto
          433 -95 -438 vlineto
          -118 -70 -61 -21 callsubr
          -69 61 118 vhcurveto
          438 -95 -433 vlineto
          -185 105 -79 174 -1 vhcurveto
          -18 -20 -13 -25 -35 vvcurveto
          -69 55 -21 47 vhcurveto
          endchar
        </CharString>
        <CharString name="Uring">
          -37 callgsubr
          45 45 102 45 hstemhm
          79 95 91 45 102 45 91 95 hintmask 00000000
          hintmask 11111111
          361 711 -73 callsubr
          -1 -768 rmoveto
          177 106 80 185 hvcurveto
          hintmask 11011111
          433 -95 -438 vlineto
          -118 -70 -61 -21 callsubr
          -69 61 118 vhcurveto
          438 -95 -433 vlineto
          hintmask 11111111
          -185 106 -80 175 vhcurveto
          endchar
        </CharString>
        <CharString name="Utilde">
          -37 callgsubr
          98 104 hstemhm
          79 95 23 -23 callgsubr
          24 95 hintmask 00000000
          hintmask 11111110
          197 764 -102 callsubr
          hintmask 11110010
          163 -776 rmoveto
          -103 callgsubr
          endchar
        </CharString>
        <CharString name="V">
          -16 0 95 591 -20 hstem
          16 635 vstem
          271 hmoveto
          125 hlineto
          255 686 rlineto
          -98 hlineto
          -180 -497 -34 -94 rlineto
          -5 hlineto
          -11 31 -12 30 -11 31 -181 499 rcurveline
          -103 hlineto
          endchar
        </CharString>
        <CharString name="W">
          51 callsubr
          hstem
          11 922 vstem
          209 hmoveto
          -98 callsubr
        </CharString>
        <CharString name="Wacute">
          51 callsubr
          50 132 hstem
          11 922 vstem
          434 -67 callsubr
          -311 -868 rmoveto
          -98 callsubr
        </CharString>
        <CharString name="Wcircumflex">
          51 callsubr
          47 135 hstem
          11 922 vstem
          324 -68 callgsubr
          -221 -868 rmoveto
          -98 callsubr
        </CharString>
        <CharString name="Wdieresis">
          51 callsubr
          87 95 hstem
          335 87 100 87 vstem
          335 -50 callsubr
          -313 -868 rmoveto
          -98 callsubr
        </CharString>
        <CharString name="Wgrave">
          51 callsubr
          50 132 hstem
          11 922 vstem
          434 -43 callgsubr
          -117 -865 rmoveto
          -98 callsubr
        </CharString>
        <CharString name="X">
          42 callgsubr
          hstem
          5 657 vstem
          5 hmoveto
          115 hlineto
          208 281 rlineto
          8 hlineto
          209 -281 rlineto
          117 hlineto
          -271 360 244 326 rlineto
          -114 hlineto
          -184 -245 rlineto
          -8 hlineto
          -182 245 rlineto
          -118 hlineto
          246 -327 rlineto
          endchar
        </CharString>
        <CharString name="Y">
          42 callgsubr
          hstem
          287 95 vstem
          287 hmoveto
          -87 callsubr
          endchar
        </CharString>
        <CharString name="Y.loclGUA">
          -10 callgsubr
          0 callsubr
          319 95 vstem
          327 -12 -99 callsubr
        </CharString>
        <CharString name="Yacute">
          -16 -10 callsubr
          287 95 vstem
          296 -67 callsubr
          -95 -868 rmoveto
          -87 callsubr
          endchar
        </CharString>
        <CharString name="Yacute.loclGUA">
          -10 callgsubr
          70 132 0 callsubr
          319 95 vstem
          296 -67 callsubr
          -55 -880 -99 callsubr
        </CharString>
        <CharString name="Ycircumflex">
          42 callgsubr
          67 135 hstem
          287 35 callsubr
          -5 -868 rmoveto
          -87 callsubr
          endchar
        </CharString>
        <CharString name="Ycircumflex.loclGUA">
          -10 callgsubr
          67 135 0 callsubr
          319 35 callsubr
          35 -880 -99 callsubr
        </CharString>
        <CharString name="Ydieresis">
          42 callgsubr
          107 95 hstemhm
          197 87 3 95 2 87 hintmask 00000000
          hintmask 11110100
          197 -50 callsubr
          hintmask 11101000
          -97 -868 rmoveto
          -87 callsubr
          endchar
        </CharString>
        <CharString name="Ydieresis.loclGUA">
          -10 callgsubr
          107 95 hstemhm
          79 95 23 87 100 87 22 95 hintmask 00000000
          hintmask 11111111
          197 -50 callsubr
          hintmask 11111001
          -57 -880 -99 callsubr
        </CharString>
        <CharString name="Ygrave">
          -16 -10 callsubr
          287 95 vstem
          296 -43 callgsubr
          99 -865 rmoveto
          -87 callsubr
          endchar
        </CharString>
        <CharString name="Ygrave.loclGUA">
          -10 callgsubr
          70 132 0 callsubr
          319 95 vstem
          296 -43 callgsubr
          139 -877 -99 callsubr
        </CharString>
        <CharString name="Z">
          -72 0 83 520 83 hstem
          23 566 vstem
          23 hmoveto
          -74 callsubr
          endchar
        </CharString>
        <CharString name="Zacute">
          -72 0 83 520 83 50 132 hstem
          23 566 vstem
          268 -67 callsubr
          -331 -868 rmoveto
          -74 callsubr
          endchar
        </CharString>
        <CharString name="Zacute.loclPLK">
          -72 0 83 520 83 50 132 hstem
          23 566 vstem
          268 4 callsubr
          -271 -868 rmoveto
          -74 callsubr
          endchar
        </CharString>
        <CharString name="Zcaron">
          -72 0 83 520 83 47 135 hstem
          23 566 vstem
          264 733 -99 callgsubr
          -135 -868 rmoveto
          -74 callsubr
          endchar
        </CharString>
        <CharString name="Zdotaccent">
          -72 0 83 520 83 87 95 hstem
          262 87 vstem
          262 50 callsubr
          -239 -868 rmoveto
          -74 callsubr
          endchar
        </CharString>
        <CharString name="a">
          -70 callsubr
          -48 callgsubr
          hintmask 10111010
          210 -12 -75 callsubr
          hintmask 01111010
          -86 callgsubr
          hintmask 10110110
          -106 callsubr
          hintmask 10111010
          -104 callgsubr
          endchar
        </CharString>
        <CharString name="aacute">
          -13 callsubr
          -12 callsubr
          -116 -2 callgsubr
          hintmask 01111101
          -86 callgsubr
          hintmask 10111011
          -106 callsubr
          hintmask 10111101
          -104 callgsubr
          endchar
        </CharString>
        <CharString name="abreve">
          -70 callsubr
          53 callsubr
          -48 callgsubr
          hintmask 1011011010000000
          277 606 -74 callgsubr
          hintmask 1011101010000000
          -56 callsubr
          hintmask 1011011010000000
          -19 callsubr
          hintmask 0111011010000000
          -86 callgsubr
          hintmask 1011010110000000
          -106 callsubr
          hintmask 1011011010000000
          -104 callgsubr
          endchar
        </CharString>
        <CharString name="acircumflex">
          -70 callsubr
          50 135 -56 56 -48 callgsubr
          hintmask 1011101010000000
          130 -13 callgsubr
          hintmask 1011011010000000
          58 79 rlineto
          hintmask 1011101010000000
          -53 callsubr
          hintmask 0111101010000000
          -86 callgsubr
          hintmask 1011100110000000
          -106 callsubr
          hintmask 1011101010000000
          -104 callgsubr
          endchar
        </CharString>
        <CharString name="acute">
          66 callsubr
          75 183 vstem
          75 -76 callgsubr
          endchar
        </CharString>
        <CharString name="acute.loclPLK">
          66 callsubr
          105 123 vstem
          105 31 callsubr
          endchar
        </CharString>
        <CharString name="adieresis">
          -70 callsubr
          90 95 -45 callsubr
          -6 87 100 87 -29 88 hintmask 1011100101000000
          141 21 callsubr
          hintmask 1011110110000000
          -71 callsubr
          -118 -735 rmoveto
          hintmask 1011100101000000
          75 65 30 49 36 hvcurveto
          7 hlineto
          hintmask 0111100101000000
          -86 callgsubr
          hintmask 1011101001000000
          -106 callsubr
          hintmask 1011110101000000
          -202 -148 -31 -145 hvcurveto
          hintmask 1011110110000000
          -127 108 -21 66 vhcurveto
          hintmask 1011110101000000
          37 callsubr
        </CharString>
        <CharString name="ae">
          206 -49 callsubr
          -45 callsubr
          241 91 279 92 hintmask 11110110
          220 -12 -24 callgsubr
          hintmask 11101110
          -125 -88 -50 -96 -9 0 -7 1 -6 hvcurveto
          85 12 hlineto
          40 25 43 94 97 25 -39 -56 vhcurveto
          -58 vlineto
          hintmask 11110110
          -27 callgsubr
        </CharString>
        <CharString name="aeacute">
          206 -49 callsubr
          53 132 -45 callsubr
          241 91 279 92 hintmask 11111011
          407 -76 callgsubr
          -273 -735 -24 callgsubr
          hintmask 11110111
          -125 -88 -50 -96 -9 0 -7 1 -6 hvcurveto
          85 12 hlineto
          40 25 43 94 97 25 -39 -56 vhcurveto
          -58 vlineto
          hintmask 11111011
          -27 callgsubr
        </CharString>
        <CharString name="agrave">
          -13 callsubr
          64 callsubr
          78 -732 -75 callsubr
          hintmask 01111101
          -86 callgsubr
          hintmask 10111011
          -106 callsubr
          hintmask 10111101
          -104 callgsubr
          endchar
        </CharString>
        <CharString name="amacron">
          -70 callsubr
          89 72 59 callsubr
          125 627 -51 callgsubr
          85 -711 -75 callsubr
          hintmask 01111101
          -86 callgsubr
          hintmask 10111011
          -106 callsubr
          hintmask 10111101
          -104 callgsubr
          endchar
        </CharString>
        <CharString name="ampersand">
          -16 -12 75 248 74 238 75 hstemhm
          43 91 -76 90 327 88 hintmask 11110100
          301 -12 rmoveto
          172 90 81 125 hvcurveto
          117 85 74 -173 -194 vlineto
          -85 -55 -43 -111 -105 -70 37 90 97 78 25 82 vhcurveto
          59 73 -61 hlineto
          hintmask 11101100
          -76 -68 39 81 85 75 33 87 96 69 -37 -85 hvcurveto
          -9 88 18 vlineto
          114 -104 74 -148 -152 -101 -66 -122 -81 46 -44 61 -29 vhcurveto
          -4 vlineto
          hintmask 11110100
          -70 -22 -52 -55 -91 vvcurveto
          -122 107 -74 151 vhcurveto
          endchar
        </CharString>
        <CharString name="ampersand.alt">
          -16 -13 73 -39 -21 625 74 hstemhm
          45 89 8 88 166 88 36 83 hintmask 00000000
          hintmask 01111110
          661 hmoveto
          -118 130 rlineto
          38 59 22 74 81 vvcurveto
          -83 hlineto
          -55 -12 -53 -22 -44 vhcurveto
          -157 173 rlineto
          74 30 81 56 102 vvcurveto
          91 -72 55 -90 -102 -78 -69 -102 -53 19 -44 30 -37 vhcurveto
          hintmask 10110110
          -81 -39 -65 -72 -101 vvcurveto
          -124 104 -71 123 86 74 29 50 55 vhcurveto
          hintmask 01111110
          60 -66 rlineto
          -230 625 rmoveto
          40 39 -27 -52 -65 -57 -32 -64 -26 hvcurveto
          -22 23 -23 35 52 vvcurveto
          62 44 30 43 vhcurveto
          hintmask 10110110
          -37 -565 rmoveto
          -80 -66 44 80 67 44 54 66 30 hvcurveto
          193 -213 rlineto
          -38 -40 -53 -24 -64 hhcurveto
          endchar
        </CharString>
        <CharString name="aogonek">
          -182 65 105 73 -57 57 -46 callsubr
          -48 callgsubr
          hintmask 11011101
          480 -182 rmoveto
          23 22 5 9 24 hvcurveto
          68 callsubr
          25 26 hvcurveto
          hintmask 10111101
          57 55 8 30 5 vhcurveto
          hintmask 11011011
          -106 callsubr
          hintmask 11011101
          -202 -148 -31 -145 -127 108 -21 66 75 65 30 49 36 hvcurveto
          7 hlineto
          6 -29 15 -22 22 -13 rrcurveto
          -28 -22 -22 -29 -44 vvcurveto
          -69 51 -21 43 vhcurveto
          -247 243 rmoveto
          -66 -39 20 60 82 104 16 154 hvcurveto
          -38 vlineto
          -94 -79 -46 -74 vhcurveto
          endchar
        </CharString>
        <CharString name="approxequal">
          -134 69 92 -32 92 62 92 -32 92 hstemhm
          38 473 hintmask 01011000
          38 271 rmoveto
          0 57 72 80 vhcurveto
          hintmask 01101000
          10 callsubr
          -306 vmoveto
          0 57 72 80 vhcurveto
          hintmask 10011000
          10 callsubr
          endchar
        </CharString>
        <CharString name="aring">
          -70 callsubr
          28 45 102 45 -45 callsubr
          35 45 102 45 12 87 callsubr
          hintmask 1011111011100000
          278 566 -73 callsubr
          -68 -623 rmoveto
          hintmask 1011011010100000
          75 65 30 49 36 hvcurveto
          7 hlineto
          hintmask 0111011010100000
          -86 callgsubr
          hintmask 1011010110100000
          -106 callsubr
          hintmask 1011011010100000
          -202 -148 -31 -145 hvcurveto
          hintmask 1011111011100000
          -127 108 -21 66 vhcurveto
          hintmask 1011011010100000
          37 callsubr
        </CharString>
        <CharString name="aringacute">
          -70 callsubr
          28 45 102 45 24 132 -45 callsubr
          35 45 102 45 12 87 callsubr
          hintmask 1011111101110000
          241 782 -96 callgsubr
          -49 -348 rmoveto
          60 36 43 53 hvcurveto
          hintmask 1011010101110000
          53 -36 43 -60 -60 -36 -43 -53 vhcurveto
          hintmask 1011111101110000
          -53 36 -43 60 vhcurveto
          45 vmoveto
          -30 -21 23 28 hvcurveto
          hintmask 1011010101110000
          28 21 23 30 30 21 -23 -28 vhcurveto
          hintmask 1011111101110000
          -28 -21 -23 -30 vhcurveto
          hintmask 1011010101010000
          -68 -623 -75 callsubr
          hintmask 0111010101010000
          -86 callgsubr
          hintmask 1011010011010000
          -106 callsubr
          hintmask 1011010101010000
          -104 callgsubr
          endchar
        </CharString>
        <CharString name="arrowboth">
          317 216 73 hstem
          42 917 vstem
          239 79 rmoveto
          42 hlineto
          -53 137 rlineto
          550 hlineto
          -58 -137 rlineto
          45 callsubr
          -550 hlineto
          53 70 callsubr
        </CharString>
        <CharString name="arrowdown">
          81 callsubr
          240 -208 25 callgsubr
          737 -73 -737 86 callgsubr
          endchar
        </CharString>
        <CharString name="arrowleft">
          317 216 73 hstem
          42 918 vstem
          239 79 rmoveto
          42 hlineto
          -58 137 rlineto
          737 73 -737 hlineto
          58 70 callsubr
        </CharString>
        <CharString name="arrowright">
          317 216 73 hstem
          41 918 vstem
          720 79 rmoveto
          45 callsubr
          -737 -73 737 hlineto
          endchar
        </CharString>
        <CharString name="arrowup">
          81 callsubr
          214 -208 rmoveto
          73 737 hlineto
          137 -58 3 callsubr
          58 rlineto
          endchar
        </CharString>
        <CharString name="arrowupdn">
          -183 -206 917 hstem
          213 73 vstem
          239 -206 25 callgsubr
          550 vlineto
          137 -53 3 callsubr
          53 rlineto
          -550 86 callgsubr
          endchar
        </CharString>
        <CharString name="arrowupdnbse">
          -183 -233 48 hstem
          213 73 vstem
          239 -136 25 callgsubr
          480 vlineto
          137 -53 3 callsubr
          53 rlineto
          -480 86 callgsubr
          -1 -294 rmoveto
          350 48 -350 hlineto
          endchar
        </CharString>
        <CharString name="asciicircum">
          -214 609 77 0 -20 hstemhm
          25 420 hintmask 01100000
          25 294 -32 callsubr
          hintmask 10100000
          119 315 121 -315 rlineto
          90 hlineto
          -157 392 rlineto
          -107 hlineto
          endchar
        </CharString>
        <CharString name="asciitilde">
          -99 223 93 -32 93 hstemhm
          41 502 hintmask 01100000
          41 211 rmoveto
          0 60 73 85 vhcurveto
          hintmask 10100000
          78 58 -61 76 hhcurveto
          97 48 73 0 hvcurveto
          93 vlineto
          0 -60 -73 -85 vhcurveto
          hintmask 01100000
          -78 -58 61 -76 hhcurveto
          -97 -48 -73 0 hvcurveto
          endchar
        </CharString>
        <CharString name="asterisk">
          -294 686 -20 hstem
          31 323 vstem
          151 362 rmoveto
          83 hlineto
          -17 119 96 -74 41 71 -112 46 112 47 -41 70 -96 -73 17 118 rlineto
          -83 hlineto
          17 -119 -96 74 -41 -70 112 -47 -112 -46 41 -71 96 74 rlineto
          endchar
        </CharString>
        <CharString name="at">
          332 -153 59 116 65 162 66 140 66 118 59 hstemhm
          57 66 188 83 -61 81 202 80 198 65 hintmask 1111111011000000
          483 -153 rmoveto
          48 89 11 16 46 hvcurveto
          64 vlineto
          -18 -40 -92 -14 -51 hhcurveto
          -246 -114 119 236 255 153 123 245 220 153 -93 -224 -185 -80 -50 -67 -32 -19 11 27 hvcurveto
          258 vlineto
          88 -58 50 -117 vhcurveto
          hintmask 1111110111000000
          -110 -78 -45 -88 -8 0 -6 1 -6 hvcurveto
          80 11 hlineto
          37 23 39 76 83 20 -34 -48 vhcurveto
          -58 vlineto
          hintmask 1111111011000000
          -175 -130 -28 -132 -115 96 -19 56 65 55 24 39 33 hvcurveto
          5 hlineto
          -37 11 28 -25 69 hhcurveto
          96 134 72 227 268 -186 109 -251 -251 -214 -117 -319 -289 163 -126 263 hvcurveto
          2 240 rmoveto
          -62 -29 18 55 75 90 14 132 hvcurveto
          -44 vlineto
          -79 -68 -39 -63 vhcurveto
          endchar
        </CharString>
        <CharString name="atilde">
          -70 callsubr
          81 73 -42 73 -45 callsubr
          -33 -23 callgsubr
          -55 87 callsubr
          hintmask 1011100010100000
          114 43 callsubr
          hintmask 1011010010100000
          -18 callsubr
          hintmask 1011101001000000
          50 43 -31 56 hhcurveto
          hintmask 1011011001000000
          60 25 48 56 hvcurveto
          -65 hlineto
          hintmask 1011100011000000
          -23 -2 -11 -8 -15 -50 -43 31 -56 hhcurveto
          hintmask 1011100010100000
          -57 callsubr
          hintmask 1011011000100000
          96 -631 -75 callsubr
          hintmask 0111011000100000
          -86 callgsubr
          hintmask 1011010100100000
          -106 callsubr
          hintmask 1011011000100000
          -104 callgsubr
          endchar
        </CharString>
        <CharString name="b">
          -12 73 -40 53 callgsubr
          hstemhm
          67 88 275 91 hintmask 10111100
          313 -12 rmoveto
          129 79 82 193 59 callgsubr
          hintmask 01111100
          -723 66 vlineto
          hintmask 10111100
          11 71 rlineto
          6 hlineto
          -55 35 60 -28 68 hhcurveto
          -22 73 8 callgsubr
        </CharString>
        <CharString name="backslash">
          92 callsubr
          206 -49 rmoveto
          71 hlineto
          -206 784 rlineto
          -70 hlineto
          endchar
        </CharString>
        <CharString name="bar">
          71 callsubr
          -173 rmoveto
          78 896 -78 hlineto
          endchar
        </CharString>
        <CharString name="braceleft">
          70 callgsubr
          41 65 17 75.5 hintmask 10110100
          292 -159 rmoveto
          57 vlineto
          -40 -49 12 59 -1 hvcurveto
          -7 206 rlineto
          hintmask 11111100
          68 -3 -22 40 -64 hhcurveto
          10 vlineto
          hintmask 10110100
          64 22 40 68 3 hvcurveto
          7 206 rlineto
          59 1 49 12 40 hhcurveto
          57 vlineto
          -89 -80 -22 -126 hvcurveto
          -197 vlineto
          hintmask 10111100
          -45 -44 -15 -38 vhcurveto
          hintmask 11111100
          -84 vlineto
          hintmask 11110100
          38 44 -15 -45 hvcurveto
          -197 vlineto
          hintmask 10110100
          -126 80 -22 89 vhcurveto
          endchar
        </CharString>
        <CharString name="braceright">
          70 callgsubr
          135.5 75.5 17 65 hintmask 10111000
          42 -159 rmoveto
          89 80 22 126 hvcurveto
          hintmask 11111000
          197 vlineto
          hintmask 11111100
          45 44 15 38 vhcurveto
          hintmask 10111100
          84 vlineto
          hintmask 10111000
          -38 -44 15 45 hvcurveto
          197 vlineto
          126 -80 22 -89 vhcurveto
          -57 vlineto
          40 49 -12 -59 1 hvcurveto
          7 -206 rlineto
          hintmask 10111100
          -68 3 22 -40 64 hhcurveto
          -10 vlineto
          hintmask 11111000
          -64 -22 -40 -68 -3 hvcurveto
          -7 -206 rlineto
          -59 -1 -49 -12 -40 hhcurveto
          endchar
        </CharString>
        <CharString name="bracketleft">
          -405 -161 65 766 65 hstem
          63 79 vstem
          63 -161 rmoveto
          188 65 -109 766 109 65 -188 hlineto
          endchar
        </CharString>
        <CharString name="bracketright">
          -405 -161 65 766 65 hstem
          136 79 vstem
          27 -161 rmoveto
          188 896 -188 -65 109 -766 -109 hlineto
          endchar
        </CharString>
        <CharString name="breve">
          -350 606 64 -64 117 hstemhm
          21 291 hintmask 01100000
          166 606 -74 callgsubr
          hintmask 10100000
          -56 callsubr
          hintmask 01100000
          -89 callgsubr
          endchar
        </CharString>
        <CharString name="brokenbar">
          71 callsubr
          357 rmoveto
          78 366 -78 hlineto
          -896 vmoveto
          78 366 -78 hlineto
          endchar
        </CharString>
        <CharString name="bullet">
          -333 220 247 hstem
          52 247 vstem
          175 220 rmoveto
          68 56 55 68 68 -56 56 -68 -68 -55 -56 -68 -68 55 -55 68 hvcurveto
          endchar
        </CharString>
        <CharString name="c">
          -183 -55 callsubr
          hstem
          35 91 259 90 vstem
          267 -12 -91 callsubr
        </CharString>
        <CharString name="cacute">
          -183 -25 callgsubr
          259 90 vstem
          63 callgsubr
          -31 -735 -91 callsubr
        </CharString>
        <CharString name="cacute.loclPLK">
          -183 -25 callgsubr
          259 90 vstem
          212 31 callsubr
          29 -735 -91 callsubr
        </CharString>
        <CharString name="caron">
          -350 588 135 hstem
          19 295 vstem
          125 588 -99 callgsubr
          endchar
        </CharString>
        <CharString name="ccaron">
          -183 -55 callsubr
          50 135 hstem
          35 91 259 90 vstem
          208 588 -99 callgsubr
          165 -735 -91 callsubr
        </CharString>
        <CharString name="ccedilla">
          -183 34 callsubr
          24 73 -52 -21 24 -21 474 73 hstemhm
          35 91 167 72 20 90 -9 callsubr
          hintmask 1001001101000000
          267 61 rmoveto
          -99 -42 56 142 hvcurveto
          4 vlineto
          145 45 57 96 92 26 -43 -91 vhcurveto
          90 hlineto
          134 -61 73 -147 -158 -74 -86 -189 vhcurveto
          hintmask 1000011101000000
          -167 56 -87 124 -18 vhcurveto
          hintmask 1010011111000000
          -12 -68 rlineto
          -40 callsubr
          hintmask 0100011101000000
          -49 vlineto
          hintmask 1010011111000000
          -12 callgsubr
          hintmask 1000101101000000
          4 24 rlineto
          143 4 55 96 107 vvcurveto
          -85 hlineto
          hintmask 1001001101000000
          -87 -33 -47 -90 vhcurveto
          endchar
        </CharString>
        <CharString name="ccircumflex">
          -183 -55 callsubr
          50 135 -56 56 hstemhm
          35 91 259 90 hintmask 11101100
          102 -13 callgsubr
          hintmask 11011100
          58 79 rlineto
          hintmask 11101100
          -101 callgsubr
          59 -735 -91 callsubr
        </CharString>
        <CharString name="cdotaccent">
          -183 -55 callsubr
          90 95 hstem
          35 91 80 87 92 90 vstem
          206 21 callsubr
          61 -735 -91 callsubr
        </CharString>
        <CharString name="cedilla">
          -350 -182 57 -28 -21 97 88 hstemhm
          193 72 hintmask 10110000
          147 -182 rmoveto
          47 71 14 67 68 callgsubr
          hvcurveto
          8 47 rlineto
          -62 hlineto
          -16 -88 rlineto
          -40 callsubr
          hintmask 01110000
          -49 vlineto
          hintmask 10110000
          -5 27 36 -3 32 hhcurveto
          endchar
        </CharString>
        <CharString name="cent">
          723 -20 hstem
          50 91 117 51 91 90 vstem
          258 -49 rmoveto
          51 117 hlineto
          130 11 51 92 103 vvcurveto
          -85 hlineto
          -78 -26 -46 -70 -9 vhcurveto
          401 vlineto
          70 -8 21 -43 -81 vvcurveto
          90 hlineto
          125 -54 72 -127 9 vhcurveto
          107 -51 -107 vlineto
          -142 -8 -66 -87 -179 vvcurveto
          -180 64 -86 144 -9 vhcurveto
          74 vmoveto
          -82 9 -35 58 130 vvcurveto
          8 vlineto
          129 36 59 81 9 vhcurveto
          endchar
        </CharString>
        <CharString name="circumflex">
          -350 588 135 -56 56 hstemhm
          19 295 hintmask 10100000
          19 -13 callgsubr
          hintmask 01100000
          58 79 rlineto
          hintmask 10100000
          -101 callgsubr
          endchar
        </CharString>
        <CharString name="colon">
          89 callsubr
          310 108 hstem
          90 100 vstem
          90 418 -17 callgsubr
          -526 vmoveto
          100 108 -100 hlineto
          endchar
        </CharString>
        <CharString name="comma">
          89 callsubr
          hstem
          89 100 vstem
          89 -134 rmoveto
          -42 callgsubr
          endchar
        </CharString>
        <CharString name="copyright">
          54 -12 47 99 55 308 56 98 47 hstem
          13 49 129 69 198 68 148 -44 callgsubr
          99 vmoveto
          114 44 74 84 hvcurveto
          -64 hlineto
          -67 -26 -36 -68 -76 -32 44 110 111 34 43 74 70 20 -32 -70 vhcurveto
          68 hlineto
          102 -46 56 -112 -121 -56 -66 -144 -144 55 -65 122 vhcurveto
          endchar
        </CharString>
        <CharString name="currency">
          102 79 338 79 hstem
          33 82 326 82 vstem
          74 99 rmoveto
          55 58 rlineto
          -37 40 55 -18 54 hhcurveto
          54 55 18 37 40 hvcurveto
          55 -58 45 45 -54 56 rlineto
          34 42 16 54 55 vvcurveto
          55 -16 56 -34 39 vhcurveto
          55 54 -48 48 -57 -56 rlineto
          33 -38 -54 18 -53 hhcurveto
          -53 -54 -18 -33 -38 hvcurveto
          -57 56 -48 -48 55 -54 rlineto
          -34 -39 -16 -56 -55 vvcurveto
          -55 16 -54 34 -42 vhcurveto
          -54 -56 rlineto
          249 37 rmoveto
          -91 -72 79 91 89 73 79 90 90 73 -79 -89 -91 -72 -79 -91 hvcurveto
          endchar
        </CharString>
        <CharString name="d">
          -12 73 -40 53 callgsubr
          79 callsubr
          hintmask 10111100
          -8 callgsubr
          hintmask 01111100
          -56 callgsubr
          hintmask 10111100
          52 callgsubr
          22 73 -69 callsubr
          endchar
        </CharString>
        <CharString name="dagger">
          686 -20 hstem
          240 74 vstem
          230 -170 rmoveto
          94 hlineto
          -20 601 17 callsubr
          rlineto
          endchar
        </CharString>
        <CharString name="daggerdbl">
          686 -20 hstem
          241.5 71 vstem
          233 -170 rmoveto
          88 hlineto
          -17 197 206 -17 rlineto
          93 vlineto
          -206 -18 20 175 -20 171 17 callsubr
          -20 -171 20 -175 -205 18 rlineto
          -93 vlineto
          205 17 rlineto
          endchar
        </CharString>
        <CharString name="dcaron">
          -58 -12 73 -40 71 callgsubr
          -48 196 -91 91 37 -20 79 callsubr
          56 85 hintmask 1010111110000000
          -8 callgsubr
          hintmask 0110111110000000
          -56 callgsubr
          hintmask 1010111110000000
          52 callgsubr
          hintmask 1001011110000000
          302 502 rmoveto
          44 hlineto
          hintmask 1010111110000000
          1 callsubr
          -314 -534 -69 callsubr
          endchar
        </CharString>
        <CharString name="dcroat">
          -12 73 -40 71 callgsubr
          58 62 -62 127 79 callsubr
          hintmask 00000000
          hintmask 10110110
          555 658 rmoveto
          -66 hlineto
          hintmask 10101110
          65 -88 vlineto
          hintmask 10110110
          -65 -140 vlineto
          hintmask 10101110
          -62 140 -130 -6 vlineto
          51 -35 -51 21 -74 hhcurveto
          -119 -81 -84 -191 -193 79 -82 129 68 60 28 55 35 hvcurveto
          6 hlineto
          hintmask 01101110
          11 -71 rlineto
          66 596 66 hlineto
          -154 -337 rmoveto
          hintmask 10101110
          -127 -39 -71 -97 -100 -39 51 147 vhcurveto
          4 vlineto
          150 40 52 99 vhcurveto
          hintmask 01101110
          96 40 -72 -130 hvcurveto
          endchar
        </CharString>
        <CharString name="degree">
          -283 428 53 163 54 hstem
          63 53 163 54 vstem
          198 428 rmoveto
          75 60 60 75 75 -60 60 -75 -75 -60 -60 -75 -75 60 -60 75 hvcurveto
          53 vmoveto
          -45 -37 37 45 45 37 36 45 45 36 -36 -45 -45 -36 -37 -45 hvcurveto
          endchar
        </CharString>
        <CharString name="dieresis">
          -350 628 95 hstem
          30 87 100 87 vstem
          30 -49 callgsubr
          endchar
        </CharString>
        <CharString name="divide">
          -134 0 100 114 83 114 100 hstem
          224 100 vstem
          224 411 rmoveto
          100 100 -100 hlineto
          -186 -297 rmoveto
          473 83 -473 hlineto
          186 -297 rmoveto
          100 100 -100 hlineto
          endchar
        </CharString>
        <CharString name="dollar">
          67 73 403 73 107 -20 hstemhm
          55 88 -73 91 88 51 85 87 -78 91 hintmask 11101101
          249 -49 rmoveto
          51 117 hlineto
          108 7 77 50 104 vvcurveto
          108 -97 29 -88 22 vhcurveto
          154 vlineto
          hintmask 11101110
          63 -9 22 -35 -35 vvcurveto
          -9 86 vlineto
          2 1 10 7 vvcurveto
          73 -61 63 -111 7 vhcurveto
          107 -51 -107 vlineto
          -110 -9 -69 -55 -85 vvcurveto
          -101 92 -26 87 -23 vhcurveto
          -177 vlineto
          hintmask 11110101
          -61 7 -45 28 58 vvcurveto
          10 -87 vlineto
          -1 -7 0 -8 -7 vvcurveto
          -74 56 -73 138 -7 vhcurveto
          334 vmoveto
          hintmask 11101101
          -50 15 -38 17 40 vvcurveto
          26 15 38 73 6 vhcurveto
          51 -403 rmoveto
          163 vlineto
          53 -17 41 -21 -48 vvcurveto
          -45 -41 -26 -53 -6 vhcurveto
          endchar
        </CharString>
        <CharString name="dotaccent">
          -350 628 95 hstem
          123 87 vstem
          123 21 callsubr
          endchar
        </CharString>
        <CharString name="dotbelowcomb">
          -683 -173 95 hstem
          -210 87 vstem
          -210 -173 -93 callgsubr
          endchar
        </CharString>
        <CharString name="dotlessi">
          2 callsubr
          hstem
          95 88 vstem
          95 hmoveto
          -14 callgsubr
        </CharString>
        <CharString name="e">
          -49 callsubr
          hstem
          44 callsubr
          vstem
          290 -12 -105 callsubr
        </CharString>
        <CharString name="eacute">
          -49 callsubr
          53 132 hstem
          44 callsubr
          vstem
          -12 callsubr
          -36 -90 callsubr
        </CharString>
        <CharString name="ebreve">
          -49 callsubr
          53 callsubr
          hstemhm
          44 callsubr
          hintmask 11101110
          277 606 -74 callgsubr
          hintmask 11110110
          -56 callsubr
          hintmask 11101110
          -89 callgsubr
          13 -618 -105 callsubr
        </CharString>
        <CharString name="ecaron">
          -49 callsubr
          50 135 hstem
          44 callsubr
          vstem
          236 588 -99 callgsubr
          160 -90 callsubr
        </CharString>
        <CharString name="ecircumflex">
          -49 callsubr
          50 135 -56 56 hstemhm
          44 callsubr
          hintmask 11110110
          130 -13 callgsubr
          hintmask 11101110
          58 79 rlineto
          hintmask 11110110
          -94 callsubr
          endchar
        </CharString>
        <CharString name="edieresis">
          -49 callsubr
          90 95 hstemhm
          39 93 9 87 100 87 10 92 hintmask 11110110
          141 -49 callgsubr
          hintmask 11111111
          -38 -90 callsubr
        </CharString>
        <CharString name="edotaccent">
          -49 callsubr
          90 95 hstem
          39 93 102 87 104 92 vstem
          234 21 callsubr
          56 -90 callsubr
        </CharString>
        <CharString name="egrave">
          -49 callsubr
          53 132 hstem
          44 callsubr
          vstem
          64 callsubr
          158 -732 -105 callsubr
        </CharString>
        <CharString name="eight">
          -12 73 253 73 238 73 hstemhm
          38 91 -73 88 266 88 -72 91 hintmask 11110010
          277 -12 rmoveto
          170 70 90 110 74 -33 59 -81 31 hvcurveto
          hintmask 11101100
          63 33 32 57 65 vvcurveto
          105 -75 86 -146 -146 -75 -86 -105 -65 32 -57 63 -33 vhcurveto
          hintmask 11110010
          -80 -31 -33 -59 -74 vvcurveto
          -110 70 -90 169 vhcurveto
          hintmask 11101100
          399 vmoveto
          -81 -52 45 74 74 51 45 82 82 51 -45 -74 -74 -52 -45 -81 hvcurveto
          hintmask 11110010
          -326 vmoveto
          -97 -51 49 78 78 51 48 97 98 51 -48 -78 -78 -51 -49 -98 hvcurveto
          endchar
        </CharString>
        <CharString name="ellipsis">
          317 0 108 hstem
          117 100 233 100 232 100 vstem
          117 hmoveto
          100 108 -100 hlineto
          333 -108 -17 callgsubr
          332 -108 -17 callgsubr
          endchar
        </CharString>
        <CharString name="emacron">
          -49 callsubr
          89 72 hstem
          44 callsubr
          vstem
          125 627 -51 callgsubr
          165 -711 -105 callsubr
        </CharString>
        <CharString name="emdash">
          317 233 75 hstem
          0 1000 vstem
          233 vmoveto
          1000 75 -1000 hlineto
          endchar
        </CharString>
        <CharString name="endash">
          233 75 hstem
          0 556 vstem
          233 vmoveto
          556 75 -556 hlineto
          endchar
        </CharString>
        <CharString name="eng">
          32 callsubr
          465 73 -12 -20 42 callsubr
          hintmask 10110110
          382 55 callsubr
          420 vlineto
          131 -64 48 -100 -72 -64 -24 -59 -41 vhcurveto
          -7 hlineto
          hintmask 10101110
          -10 71 rlineto
          -67 -526 62 callsubr
          hintmask 10110110
          97 66 57 74 65 44 -23 -89 vhcurveto
          -418 vlineto
          -31 -16 -17 -31 vhcurveto
          -44 hlineto
          hintmask 01110110
          -57 vlineto
          hintmask 10110110
          -35 callsubr
        </CharString>
        <CharString name="eogonek">
          -182 65 105 -34 callgsubr
          hstemhm
          39 93 221 79 -7 92 hintmask 00000000
          hintmask 11111100
          451 -182 rmoveto
          22 21 5 9 23 hvcurveto
          68 callsubr
          32 33 45 27 45 19 23 hvcurveto
          hintmask 11111010
          25 30 13 39 1 49 rrcurveto
          -86 hlineto
          -85 -64 -33 -77 -105 -49 57 121 -6 vhcurveto
          387 44 hlineto
          183 -79 72 -148 -168 -83 -86 -189 -189 82 -86 169 vhcurveto
          hintmask 11111100
          31 30 5 10 27 hvcurveto
          -12 -18 -13 -32 -38 vvcurveto
          -75 50 -22 48 vhcurveto
          hintmask 11111010
          -319 494 rmoveto
          109 11 48 44 99 hhcurveto
          81 54 -42 -111 hvcurveto
          endchar
        </CharString>
        <CharString name="equal">
          -99 106 83 129 84 hstem
          56 473 vstem
          56 318 rmoveto
          473 84 -473 hlineto
          -296 vmoveto
          65 callsubr
        </CharString>
        <CharString name="equivalence">
          -100 7 83 129 84 129 84 hstem
          57 472 vstem
          57 432 rmoveto
          472 84 -472 hlineto
          -297 vmoveto
          472 84 -472 hlineto
          -296 vmoveto
          472 83 -472 hlineto
          endchar
        </CharString>
        <CharString name="estimated">
          -83 -12 42 218 42 206 42 hstem
          45 108 298 108 vstem
          302 -12 rmoveto
          104 78 50 80 42 hvcurveto
          -34 21 rlineto
          -67 -34 -68 -42 -88 hhcurveto
          -62 -50 19 34 -37 hvcurveto
          165 406 5 vlineto
          165 -98 120 -159 -160 -97 -116 -159 -159 97 -116 160 vhcurveto
          -149 302 rmoveto
          152 vlineto
          34 37 50 20 62 hhcurveto
          61 50 -20 -35 38 hvcurveto
          -151 vlineto
          endchar
        </CharString>
        <CharString name="eth">
          -55 callsubr
          -10 -20 98 58 -58 117 -101 58 -12 55 57 callsubr
          -9 callsubr
          hintmask 1100010110000000
          367 619 rmoveto
          93 6 rlineto
          60 vlineto
          -152 -10 rlineto
          hintmask 1100100110000000
          -18 17 -18 15 -21 16 rrcurveto
          -98 hlineto
          -2 -4 rlineto
          hintmask 1100001110000000
          24 -18 23 -16 21 -17 rrcurveto
          hintmask 1101000110000000
          -99 -8 rlineto
          hintmask 1010100110000000
          -60 vlineto
          152 12 28 -27 23 -28 19 -29 rlinecurve
          -1 -1 rlineto
          hintmask 1100100110000000
          6 -23 -25 5 -29 hhcurveto
          -133 -96 -81 -194 -189 84 -86 159 159 84 86 189 hvcurveto
          hintmask 1100010110000000
          145 -62 114 -92 97 vhcurveto
          hintmask 1100100110000000
          -89 -558 rmoveto
          16 callsubr
          endchar
        </CharString>
        <CharString name="exclam">
          89 callsubr
          578 -20 hstemhm
          90 100 -94 88 hintmask 11010000
          109 171 60 callgsubr
          hintmask 11100000
          7 -686 -17 callgsubr
          endchar
        </CharString>
        <CharString name="exclamdbl">
          -183 0 108 578 -20 hstemhm
          90 100 -94 88 126 100 -94 88 hintmask 11010100
          109 171 60 callgsubr
          246 -515 60 callgsubr
          hintmask 11101000
          -213 -686 -17 callgsubr
          220 -108 -17 callgsubr
          endchar
        </CharString>
        <CharString name="exclamdown">
          -350 418 108 hstemhm
          117 100 -94 88 hintmask 00000000
          hintmask 11000000
          117 418 -17 callgsubr
          hintmask 10100000
          -7 -686 rmoveto
          114 hlineto
          -26 515 rlineto
          -62 hlineto
          endchar
        </CharString>
        <CharString name="f">
          -405 21 -21 453 73 132 73 hstem
          86 88 vstem
          86 hmoveto
          88 453 101 73 -101 84 hlineto
          -53 callgsubr
          vlineto
          endchar
        </CharString>
        <CharString name="f_f">
          21 -21 453 73 132 73 hstem
          86 88 190 88 vstem
          501 658 rmoveto
          52 61 hlineto
          7 -18 -30 5 -27 hhcurveto
          -90 -24 -61 -60 hvcurveto
          -84 -190 84 vlineto
          -53 callgsubr
          -453 88 453 190 -453 88 453 101 73 -101 84 vlineto
          31 16 17 33 vhcurveto
          endchar
        </CharString>
        <CharString name="fi">
          -183 21 -21 453 73 99 98 -65 73 hstemhm
          86 88 171 88 hintmask 11101100
          86 hmoveto
          88 453 101 73 -101 hlineto
          hintmask 11011100
          84 vlineto
          -53 callgsubr
          vlineto
          hintmask 11101100
          259 172 43 callgsubr
          -723 vmoveto
          -14 callgsubr
        </CharString>
        <CharString name="five">
          -12 72 312 74 156 84 hstem
          36 90 297 91 vstem
          276 -12 rmoveto
          147 91 85 151 151 -94 71 -118 -77 -49 -28 -25 -31 hvcurveto
          16 209 rlineto
          317 84 -390 hlineto
          -28 -380 81 -13 rlineto
          47 28 54 32 61 hhcurveto
          83 56 -53 -95 -111 -61 -53 -86 -85 -65 59 94 hvcurveto
          -90 hlineto
          -140 95 -85 145 vhcurveto
          endchar
        </CharString>
        <CharString name="fiveeighths">
          74 callsubr
          -36 55 134 56 63 56 12 -20 hstemhm
          40 63 -43.5 57.5 115 64 239 56 callgsubr
          hintmask 1101110011100100
          108 -12 rmoveto
          72 hlineto
          hintmask 1101101101100100
          -22 callsubr
          -485 -376 rmoveto
          78 49 46 80 81 -51 38 -63 hvcurveto
          hintmask 1101110011100100
          -30 -22 -7 -9 -16 hvcurveto
          6 79 rlineto
          158 56 -211 hlineto
          -15 -186 54 -9 rlineto
          14 17 17 6 23 hhcurveto
          40 29 -18 -45 -48 -26 -23 -37 hvcurveto
          hintmask 1101110101100100
          -37 -29 24 41 hvcurveto
          -63 hlineto
          hintmask 1101101101100100
          -74 51 -46 78 vhcurveto
          hintmask 1101110011100100
          493 -334 19 callgsubr
          hintmask 1110110011011000
          -27 callsubr
          hintmask 1101110011100100
          48 callgsubr
          hintmask 1110110011011000
          -26 callgsubr
          hintmask 1101110011100100
          -33 callgsubr
        </CharString>
        <CharString name="fl">
          -183 21 -21 453 73 132 65 -65 73 hstemhm
          86 88 171 88 hintmask 11011100
          86 hmoveto
          88 453 101 73 -101 84 hlineto
          -53 callgsubr
          vlineto
          259 -453 rmoveto
          88 hlineto
          hintmask 11101100
          723 -88 vlineto
          endchar
        </CharString>
        <CharString name="florin">
          -183 73 512 73 183 73 hstem
          39 479 vstem
          111 -183 rmoveto
          90 37 61 60 13 hvcurveto
          99 464 rlineto
          101 hlineto
          15 73 rlineto
          -101 hlineto
          29 135 rlineto
          31 7 19 17 33 hhcurveto
          52 hlineto
          13 61 rlineto
          7 -16 -29 5 -27 hhcurveto
          -90 -37 -61 -60 -13 hvcurveto
          -29 -135 rlineto
          -77 hlineto
          -15 -73 rlineto
          77 hlineto
          -99 -464 rlineto
          -31 -7 -19 -17 -33 hhcurveto
          -52 hlineto
          -13 -61 rlineto
          -7 16 29 -5 27 hhcurveto
          endchar
        </CharString>
        <CharString name="four">
          21 -21 169 73 456 -20 hstem
          344 88 vstem
          344 hmoveto
          88 169 91 73 -91 354 -47 hlineto
          -14 -52 -10 -33 -17 -44 rrcurveto
          -225 -233 vlineto
          41 55 110 217 42 184 rrcurveto
          -95 hlineto
          -38 -168 -63 -145 -83 -142 rrcurveto
          -74 319 vlineto
          endchar
        </CharString>
        <CharString name="fraction">
          13 callgsubr
        </CharString>
        <CharString name="franc">
          21 -21 312 73 -2 93 135 75 hstemhm
          79 90 131 88 hintmask 11011100
          79 hmoveto
          90 312 131 -312 88 249 hlineto
          hintmask 10111100
          99 57 35 62 vhcurveto
          37 85 hlineto
          0 -19 8 -28 vhcurveto
          hintmask 11011100
          -66 -32 -47 -44 -16 hvcurveto
          -6 hlineto
          hintmask 10111100
          -10 79 rlineto
          -67 hlineto
          hintmask 11011100
          -79 -131 226 258 75 -348 vlineto
          endchar
        </CharString>
        <CharString name="g">
          -36 callgsubr
          -8 callsubr
          -9 callsubr
          hintmask 1111100010000000
          161 -182 -52 callgsubr
          hintmask 1111010100000000
          -79 callsubr
          hintmask 1111001010000000
          -84 callsubr
          hintmask 1111010100000000
          -42 callsubr
          hintmask 1111100100000000
          29 callgsubr
          hintmask 1111100010000000
          62 callgsubr
          hintmask 1111001100000000
          -72 callsubr
          hintmask 1111100010000000
          -80 callgsubr
        </CharString>
        <CharString name="g_tilde.loclGUA">
          -36 callgsubr
          81 90 callsubr
          18 88 -58 90 -73 88 -39 -23 callgsubr
          -36 87 -40 87 -9 callsubr
          hintmask 1111100001010000
          114 43 callsubr
          hintmask 1111010001010000
          -18 callsubr
          hintmask 1111100010100000
          50 43 -31 56 hhcurveto
          hintmask 1111010010100000
          60 25 48 56 hvcurveto
          -65 hlineto
          hintmask 1111100001100000
          -23 -2 -11 -8 -15 -50 -43 31 -56 hhcurveto
          hintmask 1111100001010000
          -57 callsubr
          hintmask 1111011000001000
          47 -801 -52 callgsubr
          hintmask 1111010100010000
          -79 callsubr
          hintmask 1111010010001000
          -84 callsubr
          hintmask 1111010100010000
          -42 callsubr
          hintmask 1111011000010000
          29 callgsubr
          hintmask 1111011000001000
          62 callgsubr
          hintmask 1111010010010000
          -72 callsubr
          hintmask 1111011000001000
          -80 callgsubr
        </CharString>
        <CharString name="gbreve">
          -36 callgsubr
          53 callsubr
          -8 callsubr
          hintmask 1111010011000000
          277 606 -74 callgsubr
          hintmask 1111100011000000
          -56 callsubr
          hintmask 1111010011000000
          -89 callgsubr
          hintmask 1111011000100000
          -116 -788 -52 callgsubr
          hintmask 1111010101000000
          -79 callsubr
          hintmask 1111010010100000
          -84 callsubr
          hintmask 1111010101000000
          -42 callsubr
          hintmask 1111011001000000
          29 callgsubr
          hintmask 1111011000100000
          62 callgsubr
          hintmask 1111010011000000
          -72 callsubr
          hintmask 1111011000100000
          -80 callgsubr
        </CharString>
        <CharString name="gcaron">
          -36 callgsubr
          50 135 -8 callsubr
          hintmask 1111100110000000
          236 588 -99 callgsubr
          hintmask 1111110001000000
          31 -78 callgsubr
        </CharString>
        <CharString name="gcircumflex">
          -36 callgsubr
          50 23 -23 135 -56 56 -8 callsubr
          hintmask 1111010001100000
          130 -13 callgsubr
          hintmask 1111001001100000
          58 79 rlineto
          hintmask 1111010100010000
          -101 callgsubr
          -75 12 callgsubr
          hintmask 1111010010100000
          -79 callsubr
          hintmask 1111100001010000
          -84 callsubr
          hintmask 1111010010100000
          -42 callsubr
          hintmask 1111010100100000
          29 callgsubr
          hintmask 1111010100010000
          62 callgsubr
          hintmask 1111010001100000
          -72 callsubr
          hintmask 1111010100010000
          -80 callgsubr
        </CharString>
        <CharString name="gcommaaccent">
          -36 callgsubr
          70 91 hstemhm
          18 88 -58 90 -73 88 84 88 80 87 -40 87 hintmask 1111100111000000
          237 608 rmoveto
          88 91 -37 hlineto
          37 81 rlineto
          -45 hlineto
          -43 -88 rlineto
          hintmask 1111110010100000
          -76 -874 -52 callgsubr
          hintmask 1111101011000000
          -79 callsubr
          hintmask 1111100110100000
          -84 callsubr
          hintmask 1111101011000000
          -42 callsubr
          hintmask 1111110011000000
          29 callgsubr
          hintmask 1111110010100000
          62 callgsubr
          hintmask 1111100111000000
          -72 callsubr
          hintmask 1111110010100000
          -80 callgsubr
        </CharString>
        <CharString name="gdotaccent">
          -36 callgsubr
          90 95 hstemhm
          18 88 -58 90 -73 88 81 87 84 87 -40 87 hintmask 1111100111000000
          234 21 callsubr
          hintmask 1111110010100000
          -73 12 callgsubr
          hintmask 1111101011000000
          -79 callsubr
          hintmask 1111100110100000
          -84 callsubr
          hintmask 1111101011000000
          -42 callsubr
          hintmask 1111110011000000
          29 callgsubr
          hintmask 1111110010100000
          62 callgsubr
          hintmask 1111100111000000
          -72 callsubr
          hintmask 1111110010100000
          -80 callgsubr
        </CharString>
        <CharString name="germandbls">
          -72 0 74 276 73 239 73 hstemhm
          64 89 312 90 -64 90 hintmask 11110100
          64 hmoveto
          89 518 hlineto
          95 61 49 99 vhcurveto
          hintmask 11111000
          98 54 -48 -66 -70 -60 -55 -74 hvcurveto
          -94 -73 104 hlineto
          hintmask 11110100
          84 66 -60 -77 -75 -62 -64 -78 hvcurveto
          -114 -74 124 hlineto
          122 98 89 117 92 -61 67 -84 26 hvcurveto
          4 vlineto
          hintmask 11111000
          72 24 47 60 75 vvcurveto
          105 -93 76 -148 -135 -115 -63 -156 vhcurveto
          endchar
        </CharString>
        <CharString name="grave">
          66 callsubr
          75 183 vstem
          183 -44 callsubr
          endchar
        </CharString>
        <CharString name="greater">
          -99 4 500 hstem
          448 81 vstem
          55 4 rmoveto
          474 196 rlineto
          107 vlineto
          -474 197 rlineto
          -90 vlineto
          393 -160 -393 -160 rlineto
          endchar
        </CharString>
        <CharString name="greaterequal">
          -134 0 83 hstem
          430 81 vstem
          38 124 rmoveto
          473 196 rlineto
          107 vlineto
          -473 197 rlineto
          -90 vlineto
          392 -160 -392 -160 rlineto
          -214 vmoveto
          65 callsubr
        </CharString>
        <CharString name="guillemotleft">
          77 callgsubr
          221 126 rmoveto
          71 hlineto
          hintmask 10100000
          11 callsubr
          352 -200 rmoveto
          71 hlineto
          11 callsubr
          endchar
        </CharString>
        <CharString name="guillemotright">
          77 callgsubr
          64 126 rmoveto
          71 hlineto
          hintmask 10100000
          12 callsubr
          66 -200 rmoveto
          71 hlineto
          12 callsubr
          endchar
        </CharString>
        <CharString name="guilsinglleft">
          -350 -19 callgsubr
          hstem
          55 228 vstem
          212 126 rmoveto
          71 hlineto
          11 callsubr
          endchar
        </CharString>
        <CharString name="guilsinglright">
          -350 -19 callgsubr
          hstem
          50 228 vstem
          50 126 rmoveto
          71 hlineto
          12 callsubr
          endchar
        </CharString>
        <CharString name="h">
          21 53 callgsubr
          hstem
          67 88 249 88 vstem
          67 hmoveto
          -55 callgsubr
          256 -88 hlineto
          endchar
        </CharString>
        <CharString name="hbar">
          21 71 callgsubr
          58 62 -62 127 42 callsubr
          hintmask 11011100
          67 hmoveto
          -55 callgsubr
          129 140 hlineto
          hintmask 11101100
          62 -140 vlineto
          hintmask 11011100
          65 -88 vlineto
          hintmask 11101100
          -65 -66 vlineto
          hintmask 11011100
          -62 66 vlineto
          endchar
        </CharString>
        <CharString name="hcircumflex">
          21 53 callgsubr
          45 135 42 callsubr
          hintmask 00000000
          hintmask 11111100
          -37 748 rmoveto
          90 hlineto
          58 79 -101 callgsubr
          -2 -883 rmoveto
          -55 callgsubr
          hlineto
          hintmask 11101100
          256 -88 vlineto
          endchar
        </CharString>
        <CharString name="hookabovecomb">
          -683 591 58 callsubr
          -199 56 -14 72 hintmask 11100000
          -199 56 callsubr
          hintmask 11010000
          -102 callgsubr
          -16 callgsubr
          hvcurveto
          hintmask 11100000
          -13 hlineto
          endchar
        </CharString>
        <CharString name="house">
          -79 0 40 hstem
          77 39 372 39 vstem
          77 hmoveto
          450 310 hlineto
          -225 253 -225 -253 rlineto
          39 -270 rmoveto
          253 vlineto
          186 208 186 -208 rlineto
          -253 vlineto
          endchar
        </CharString>
        <CharString name="hungarumlaut">
          66 callsubr
          27 299 vstem
          27 591 -59 callsubr
          endchar
        </CharString>
        <CharString name="hyphen">
          38 callgsubr
        </CharString>
        <CharString name="i">
          -461 21 18 callgsubr
          endchar
        </CharString>
        <CharString name="i.loclTRK">
          2 callsubr
          122 95 hstem
          95 88 vstem
          95 21 callsubr
          -723 vmoveto
          -14 callgsubr
        </CharString>
        <CharString name="iacute">
          -405 21 -7 callgsubr
          hstem
          95 88 vstem
          85 -76 callgsubr
          -76 -723 -23 callsubr
        </CharString>
        <CharString name="iacute_j.loclNLD">
          -183 19 callsubr
          85 132 hstemhm
          95 88 162 88 hintmask 10111110
          85 -76 callgsubr
          180 -132 -96 callgsubr
          -342 -723 rmoveto
          27 callsubr
          228 -708 -70 callgsubr
          hintmask 01111110
          -57 vlineto
          hintmask 10111110
          -35 callsubr
        </CharString>
        <CharString name="ibreve">
          2 callsubr
          100 64 -64 117 hstemhm
          95 88 hintmask 11011000
          139 606 -74 callgsubr
          hintmask 11101000
          -56 callsubr
          hintmask 11011000
          -89 callgsubr
          -44 -606 -23 callsubr
        </CharString>
        <CharString name="icircumflex">
          2 callsubr
          82 135 -56 56 hstemhm
          95 88 hintmask 11101000
          -8 -13 callgsubr
          hintmask 11011000
          58 79 rlineto
          hintmask 11101000
          -101 callgsubr
          -3 -723 -23 callsubr
        </CharString>
        <CharString name="idieresis">
          2 callsubr
          122 95 hstemhm
          2 87 6 88 6 87 hintmask 00000000
          hintmask 11110100
          2 -49 callgsubr
          hintmask 11101000
          -94 -723 -23 callsubr
        </CharString>
        <CharString name="igrave">
          -405 21 -7 callgsubr
          hstem
          95 88 vstem
          117 -44 callsubr
          86 -720 -23 callsubr
        </CharString>
        <CharString name="ij">
          -239 19 callsubr
          119 98 hstemhm
          67 88 134 88 hintmask 10111110
          67 34 callgsubr
          222 -98 43 callgsubr
          -222 -723 rmoveto
          27 callsubr
          200 -708 -70 callgsubr
          hintmask 01111110
          -57 vlineto
          hintmask 10111110
          -35 callsubr
        </CharString>
        <CharString name="imacron">
          2 callsubr
          133 72 hstem
          95 88 vstem
          12 639 rmoveto
          254 72 -254 hlineto
          83 -711 -23 callsubr
        </CharString>
        <CharString name="infinity">
          30 142 72 163 76 hstem
          47 74 470 74 vstem
          194 142 rmoveto
          70 49 45 51 43 hvcurveto
          -51 42 49 -45 71 hhcurveto
          92 55 69 86 86 -56 70 -92 -70 -49 -46 -51 -42 hvcurveto
          51 -43 -49 46 -69 hhcurveto
          -92 -56 -70 -86 -86 55 -69 92 hvcurveto
          72 vmoveto
          -40 -33 36 45 45 34 37 40 44 35 -36 -44 35 hvcurveto
          -46 -36 -34 -37 -45 hhcurveto
          324 hmoveto
          -45 -35 37 46 -36 hvcurveto
          44 36 34 36 45 hhcurveto
          40 34 -37 -45 -45 -33 -36 -40 hvcurveto
          endchar
        </CharString>
        <CharString name="integral">
          -409 -141 50 901 49 hstem
          91 99 vstem
          33 -141 rmoveto
          86 71 17 95 153 -28 629 0 hvcurveto
          80 callgsubr
          -154 27 -626 0 hvcurveto
          -44 -36 -14 -49 vhcurveto
          endchar
        </CharString>
        <CharString name="integralbt">
          -79 -250 49 hstem
          274 71 vstem
          187 -250 rmoveto
          86 72 18 94 80 -7 477 -7 440 hvcurveto
          -74 hlineto
          17 -1003 rlineto
          -43 -38 -14 -49 vhcurveto
          endchar
        </CharString>
        <CharString name="integraltp">
          -79 810 49 hstem
          259 71 vstem
          273 -250 rmoveto
          74 hlineto
          -17 1003 rlineto
          80 callgsubr
          -80 7 -477 7 -440 hvcurveto
          endchar
        </CharString>
        <CharString name="intersection">
          36 21 -21 604 72 hstem
          94 73 385 73 vstem
          94 hmoveto
          73 411 hlineto
          106 86 87 106 106 87 -87 -106 vhcurveto
          -411 73 410 vlineto
          147 -119 119 -147 -147 -118 -119 -147 vhcurveto
          endchar
        </CharString>
        <CharString name="iogonek">
          -405 -190 65 -51 51 -30 -21 197 -37 callsubr
          122 95 hstemhm
          37 78 -20 88 hintmask 00111101
          182 723 rmoveto
          -87 -95 87 hlineto
          hintmask 01011110
          -14 -753 rmoveto
          28 callsubr
          hintmask 00111101
          30 -5 callgsubr
          -522 -2 hlineto
          hintmask 10011110
          -29 -26 -27 -29 -49 vvcurveto
          -69 55 -21 47 vhcurveto
          hintmask 00111110
          61 callsubr
          hvcurveto
          hintmask 01011110
          51 vlineto
          endchar
        </CharString>
        <CharString name="itilde">
          2 callsubr
          113 90 callsubr
          -24 65 54 88 55 65 hintmask 00000000
          hintmask 11101100
          -24 43 callsubr
          hintmask 11011100
          -18 callsubr
          hintmask 11100110
          50 43 -31 56 hhcurveto
          hintmask 11010110
          60 25 48 56 hvcurveto
          -65 hlineto
          hintmask 11101110
          -23 -2 -11 -8 -15 -50 -43 31 -56 hhcurveto
          hintmask 11101100
          -57 callsubr
          hintmask 11010100
          119 -619 -23 callsubr
        </CharString>
        <CharString name="j">
          -461 -1 callsubr
          639 -20 119 98 hstemhm
          67 88 hintmask 10111000
          67 34 callgsubr
          -22 39 callgsubr
          hintmask 01111000
          -57 vlineto
          hintmask 10111000
          -35 callsubr
        </CharString>
        <CharString name="jcircumflex">
          -461 -1 callsubr
          639 -20 82 135 -56 56 hstemhm
          67 88 hintmask 10110100
          -36 -13 callgsubr
          hintmask 10101100
          58 79 rlineto
          hintmask 10110100
          -101 callgsubr
          -25 39 callgsubr
          hintmask 01110100
          -57 vlineto
          hintmask 10110100
          -35 callsubr
        </CharString>
        <CharString name="k">
          85 callgsubr
          217 -20 hstem
          67 -38 callsubr
          455 -88 vlineto
          endchar
        </CharString>
        <CharString name="kcommaaccent">
          -183 76 callgsubr
          526 -20 217 -20 hstem
          67 88 76 -38 callsubr
          455 -88 vlineto
          164 -953 rmoveto
          -64 callsubr
        </CharString>
        <CharString name="kgreenlandic">
          -183 21 -21 526 -20 hstem
          67 -38 callsubr
          258 -88 vlineto
          endchar
        </CharString>
        <CharString name="l">
          -461 21 81 callgsubr
          723 -88 hlineto
          endchar
        </CharString>
        <CharString name="lacute">
          -461 21 -21 723 -20 48 132 hstemhm
          67 88 hintmask 00000000
          hintmask 11110000
          73 751 -96 callgsubr
          -92 -883 rmoveto
          88 hlineto
          hintmask 11010000
          723 -88 vlineto
          endchar
        </CharString>
        <CharString name="lcaron">
          -391 21 -21 490 196 -91 91 -91 128 hstemhm
          67 88 52 85 hintmask 10101100
          67 hmoveto
          88 hlineto
          hintmask 10011100
          723 -88 vlineto
          hintmask 11001100
          140 -233 rmoveto
          44 hlineto
          hintmask 10101100
          1 callsubr
          endchar
        </CharString>
        <CharString name="lcommaaccent">
          -461 -149 91 79 81 callgsubr
          723 -88 hlineto
          -953 vmoveto
          -64 callsubr
        </CharString>
        <CharString name="ldot">
          -400 21 -21 303 108 312 -20 hstem
          67 88 51 100 vstem
          67 hmoveto
          88 723 -88 hlineto
          139 -420 -17 callgsubr
          endchar
        </CharString>
        <CharString name="less">
          -99 4 500 hstem
          55 81 vstem
          529 4 rmoveto
          90 vlineto
          -393 160 393 160 rlineto
          90 vlineto
          -474 -197 rlineto
          -107 vlineto
          endchar
        </CharString>
        <CharString name="lessequal">
          -134 0 83 hstem
          38 81 vstem
          511 124 rmoveto
          90 vlineto
          -392 160 392 160 rlineto
          90 vlineto
          -473 -197 rlineto
          -107 vlineto
          -320 vmoveto
          65 callsubr
        </CharString>
        <CharString name="lira">
          0 79 124 72 76 72 202 54 callsubr
          124 rlineto
          166 72 -166 76 166 72 -165 92 16 callgsubr
          -76 -90 -72 90 -76 -90 -72 90 -124 -76 vlineto
          endchar
        </CharString>
        <CharString name="logicalnot">
          -99 360 93 hstem
          445 84 vstem
          445 197 rmoveto
          84 256 -473 -93 389 hlineto
          endchar
        </CharString>
        <CharString name="longs">
          -405 21 -21 453 73 132 73 hstem
          86 88 vstem
          86 hmoveto
          88 610 hlineto
          -53 callgsubr
          vlineto
          endchar
        </CharString>
        <CharString name="lozenge">
          -99 -132 71 717 71 0 -20 hstemhm
          60 464 hintmask 10110000
          239 -132 rmoveto
          107 hlineto
          178 430 -178 429 rlineto
          -107 hlineto
          -179 -429 rlineto
          232 -359 rmoveto
          -142 359 rlineto
          hintmask 11010000
          142 358 142 -358 rlineto
          endchar
        </CharString>
        <CharString name="lslash">
          -461 21 81 callgsubr
          356 hlineto
          66 55 rlineto
          77 vlineto
          -66 -55 rlineto
          290 -88 -363 vlineto
          -67 -56 rlineto
          -77 vlineto
          67 56 rlineto
          endchar
        </CharString>
        <CharString name="m">
          150 21 callgsubr
          hstemhm
          67 88 219 88 219 88 hintmask 11011100
          67 hmoveto
          62 callsubr
          97 59 57 68 53 39 -21 -81 vhcurveto
          -363 88 311 vlineto
          97 57 57 68 53 41 -21 -81 vhcurveto
          -363 88 379 vlineto
          117 -63 42 -92 -64 -62 -28 -55 -37 vhcurveto
          -6 hlineto
          59 -24 -50 24 -62 hhcurveto
          -66 -55 -26 -57 -37 hvcurveto
          -7 hlineto
          hintmask 10111100
          26 callsubr
        </CharString>
        <CharString name="macron">
          37 callgsubr
        </CharString>
        <CharString name="minus">
          -99 214 83 hstem
          56 472 vstem
          56 214 rmoveto
          472 83 -472 hlineto
          endchar
        </CharString>
        <CharString name="minute">
          -496 515 171 hstem
          49 129 vstem
          49 515 48 callsubr
          endchar
        </CharString>
        <CharString name="multiply">
          -99 45 421 hstem
          81 421 vstem
          140 45 rmoveto
          151 152 152 -152 59 59 -152 151 152 152 -59 59 -152 -152 -151 152 -59 -59 152 -152 -152 -151 rlineto
          endchar
        </CharString>
        <CharString name="n">
          21 callgsubr
          42 callsubr
          hintmask 11011000
          67 hmoveto
          -87 callgsubr
          hintmask 10111000
          26 callsubr
        </CharString>
        <CharString name="nacute">
          21 callgsubr
          85 132 42 callsubr
          hintmask 11011100
          -12 callsubr
          -259 -723 rmoveto
          -87 callgsubr
          hintmask 10111100
          26 callsubr
        </CharString>
        <CharString name="nacute.loclPLK">
          21 callgsubr
          85 132 42 callsubr
          hintmask 11011100
          240 31 callsubr
          -199 -723 rmoveto
          -87 callgsubr
          hintmask 10111100
          26 callsubr
        </CharString>
        <CharString name="napostrophe">
          -79 21 71 callgsubr
          -48 36 69 91 hstemhm
          0 85 30 46 callgsubr
          hintmask 00000000
          hintmask 10111110
          490 vmoveto
          44 hlineto
          1 callsubr
          hintmask 11010110
          81 -595 rmoveto
          -87 callgsubr
          hintmask 10110110
          26 callsubr
        </CharString>
        <CharString name="ncaron">
          21 callgsubr
          82 135 42 callsubr
          hintmask 11011100
          236 588 -99 callgsubr
          -63 -723 rmoveto
          -87 callgsubr
          hintmask 10111100
          26 callsubr
        </CharString>
        <CharString name="ncommaaccent">
          -149 91 79 41 callsubr
          hstemhm
          67 88 79 88 82 88 hintmask 11101110
          67 hmoveto
          -87 callgsubr
          hintmask 11011110
          -10 71 rlineto
          -67 hlineto
          167 -756 rmoveto
          -64 callsubr
        </CharString>
        <CharString name="nine">
          -12 73 184 72 308 73 hstemhm
          38 91 -68 90 277 90 hintmask 00000000
          hintmask 11101100
          269 -12 rmoveto
          162 87 95 280 254 -95 81 -157 hvcurveto
          hintmask 11110100
          -131 -97 -87 -139 -127 72 -100 151 68 60 27 48 39 hvcurveto
          -159 -2 -30 -100 -122 hhcurveto
          hintmask 11101100
          -82 -41 51 89 hvcurveto
          -90 hlineto
          -121 61 -92 147 vhcurveto
          hintmask 11110100
          4 329 rmoveto
          -99 -45 67 84 86 45 71 99 99 46 -69 -84 -86 -46 -69 -99 hvcurveto
          endchar
        </CharString>
        <CharString name="notequal">
          -134 106 83 129 84 hstem
          38 473 vstem
          119 25 rmoveto
          66 hlineto
          43 81 rlineto
          283 83 -239 hlineto
          69 129 rlineto
          170 84 -125 hlineto
          44 82 rlineto
          -66 hlineto
          -44 -82 rlineto
          -282 -84 237 hlineto
          -69 -129 rlineto
          -168 -83 124 hlineto
          endchar
        </CharString>
        <CharString name="ntilde">
          21 callgsubr
          113 90 callsubr
          67 88 -41 -23 callgsubr
          -37 87 callsubr
          hintmask 1101001010000000
          114 43 callsubr
          hintmask 1100101010000000
          -18 callsubr
          5 callgsubr
          hintmask 1101001010000000
          -57 callsubr
          hintmask 1100110010000000
          -47 -619 rmoveto
          -87 callgsubr
          hintmask 1010110010000000
          26 callsubr
        </CharString>
        <CharString name="numbersign">
          9 -21 191 76 155 76 212 -20 hstem
          10 533 vstem
          48 -12 rmoveto
          77 hlineto
          42 191 rlineto
          153 hlineto
          -42 -191 rlineto
          77 hlineto
          42 191 rlineto
          101 76 -85 hlineto
          34 155 rlineto
          96 76 -79 82 callsubr
          -153 82 callsubr
          -102 -76 85 hlineto
          -34 -155 rlineto
          -96 -76 80 hlineto
          93 76 rmoveto
          34 155 rlineto
          153 hlineto
          -34 -155 rlineto
          endchar
        </CharString>
        <CharString name="o">
          -55 callsubr
          79 callgsubr
          vstem
          278 -12 -104 callsubr
        </CharString>
        <CharString name="oacute">
          -25 callgsubr
          304 91 vstem
          -12 callsubr
          -48 -92 callsubr
        </CharString>
        <CharString name="oacute.loclPLK">
          -25 callgsubr
          304 91 vstem
          240 31 callsubr
          12 -92 callsubr
        </CharString>
        <CharString name="obreve">
          -55 callsubr
          53 callsubr
          57 callsubr
          hintmask 11011100
          277 606 -74 callgsubr
          hintmask 11101100
          -56 callsubr
          hintmask 11011100
          -89 callgsubr
          1 -618 -104 callsubr
        </CharString>
        <CharString name="ocircumflex">
          -55 callsubr
          50 135 -56 56 57 callsubr
          hintmask 11101100
          130 -13 callgsubr
          hintmask 11011100
          58 79 rlineto
          hintmask 11101100
          -91 callgsubr
          endchar
        </CharString>
        <CharString name="odieresis">
          -55 callsubr
          90 95 hstemhm
          35 91 15 87 100 87 15 91 hintmask 00000000
          hintmask 11111110
          141 -49 callgsubr
          hintmask 11110010
          -50 -92 callsubr
        </CharString>
        <CharString name="oe">
          261 -49 callsubr
          79 callgsubr
          295 92 vstem
          278 -12 rmoveto
          91 66 31 64 40 hvcurveto
          -64 41 68 -31 97 hhcurveto
          127 100 63 128 hvcurveto
          -86 hlineto
          -85 -64 -33 -77 -105 -49 57 121 -6 vhcurveto
          387 44 hlineto
          183 -79 72 -148 -97 -68 -31 -65 -41 vhcurveto
          64 -40 -66 32 -91 hhcurveto
          -39 callgsubr
          73 vmoveto
          16 callsubr
          245 251 rmoveto
          109 11 48 44 99 hhcurveto
          81 54 -42 -111 hvcurveto
          endchar
        </CharString>
        <CharString name="ogonek">
          -350 -182 65 -65 194 hstemhm
          81 78 hintmask 10100000
          183 -9 callgsubr
        </CharString>
        <CharString name="ograve">
          -25 callgsubr
          304 91 vstem
          64 callsubr
          146 -732 -104 callsubr
        </CharString>
        <CharString name="ohorn">
          -55 callsubr
          40 108 57 callsubr
          -15 120 hintmask 00000000
          hintmask 11110100
          506 686 -73 callgsubr
          hintmask 11111000
          -22 callgsubr
          hintmask 11110100
          13 callsubr
          hintmask 11111000
          -69 callgsubr
          endchar
        </CharString>
        <CharString name="ohungarumlaut">
          -25 callgsubr
          304 91 vstem
          170 591 -59 callsubr
          -93 -92 callsubr
        </CharString>
        <CharString name="omacron">
          -55 callsubr
          89 72 79 callgsubr
          vstem
          125 627 -51 callgsubr
          153 -711 -104 callsubr
        </CharString>
        <CharString name="one">
          0 73 488 52 73 -20 hstem
          271 88 vstem
          94 hmoveto
          429 73 -164 613 -34 hlineto
          -69 -38 -103 -29 -60 -6 rrcurveto
          -52 178 -488 -177 vlineto
          endchar
        </CharString>
        <CharString name="oneeighth">
          74 callsubr
          -30 9 callsubr
          333 56 callgsubr
          hintmask 1101010110010000
          108 -12 rmoveto
          72 hlineto
          hintmask 1101001110010000
          -16 callsubr
          hintmask 1101010110010000
          302 -30 vlineto
          hintmask 1101100110010000
          52 callsubr
          hintmask 1101010110010000
          67 callgsubr
          611 -396 19 callgsubr
          hintmask 1110010101100000
          -27 callsubr
          hintmask 1101010110010000
          48 callgsubr
          hintmask 1110010101100000
          -26 callgsubr
          hintmask 1101010110010000
          -33 callgsubr
        </CharString>
        <CharString name="onehalf">
          151 0 56 -47 -21 320 56 -36 9 callsubr
          326 72 callsubr
          -9 callsubr
          hintmask 0101001101100000
          108 -12 rmoveto
          72 hlineto
          -16 callsubr
          hintmask 1001010101100000
          302 -30 vlineto
          hintmask 1001100101100000
          52 callsubr
          hintmask 1001010110000000
          67 callgsubr
          477 -384 24 callsubr
          hintmask 1010010101100000
          52 38 57 44 63 vvcurveto
          74 -51 31 -66 -69 -60 -33 -80 -7 1 -10 1 -7 vhcurveto
          62 25 hlineto
          30 16 26 47 45 10 -28 -20 -12 -4 -12 -8 -11 vhcurveto
          -15 -23 -28 -20 -28 -21 rrcurveto
          hintmask 1001010110000000
          -50 -37 -53 -38 -62 vvcurveto
          endchar
        </CharString>
        <CharString name="onequarter">
          77 callsubr
          9 callsubr
          467 63 -9 callsubr
          hintmask 0101001110000000
          108 -12 rmoveto
          72 hlineto
          -16 callsubr
          hintmask 1001010110000000
          302 -30 vlineto
          hintmask 1001100110000000
          52 callsubr
          hintmask 1001010110000000
          67 callgsubr
          618 -384 rmoveto
          63 hlineto
          hintmask 0011010110000000
          82 45 vlineto
          hintmask 1001010110000000
          24 callgsubr
          hintmask 0011010110000000
          72 callgsubr
        </CharString>
        <CharString name="ordfeminine">
          -313 362 53 -50 50 116 53 99 52 hstemhm
          23 72 -55 69 143 69 hintmask 00000000
          hintmask 01110110
          343 415 rmoveto
          -10 -12 6 16 hvcurveto
          198 vlineto
          63 -45 37 -92 -84 -60 -34 -66 vhcurveto
          -17 69 10 vlineto
          27 17 28 55 56 15 -23 -33 vhcurveto
          -43 vlineto
          hintmask 10111010
          -132 -97 -21 -100 -87 74 -14 45 47 41 17 28 25 hvcurveto
          2 hlineto
          hintmask 01111010
          -25 8 26 -17 33 hhcurveto
          21 18 4 5 8 hvcurveto
          41 vlineto
          hintmask 10111010
          -119 85 rmoveto
          -57 -50 -28 -44 -41 -22 13 38 54 65 11 92 vhcurveto
          endchar
        </CharString>
        <CharString name="ordmasculine">
          -318 361 53 268 53 hstem
          22 73 177 71 vstem
          183 361 rmoveto
          105 55 59 128 128 -55 59 -105 -105 -56 -59 -128 -128 56 -59 105 hvcurveto
          53 vmoveto
          -63 -25 41 93 hvcurveto
          5 vlineto
          90 25 39 63 62 27 -42 -94 -92 -27 -40 -62 vhcurveto
          endchar
        </CharString>
        <CharString name="orthogonal">
          296 0 66 hstem
          177 74 vstem
          177 hmoveto
          625 66 -551 559 -74 hlineto
          endchar
        </CharString>
        <CharString name="oslash">
          -72 -55 callsubr
          hstem
          62 93 callgsubr
          vstem
          45 -49 -61 callsubr
        </CharString>
        <CharString name="oslashacute">
          -72 22 callgsubr
          132 hstem
          62 93 callgsubr
          vstem
          268 -76 callgsubr
          -309 -772 -61 callsubr
        </CharString>
        <CharString name="otilde">
          -55 callsubr
          81 90 callsubr
          35 91 -12 -23 callgsubr
          -11 91 hintmask 00000000
          hintmask 11100101
          114 43 callsubr
          hintmask 11010101
          -18 callsubr
          hintmask 11101010
          50 43 -31 56 hhcurveto
          hintmask 11011010
          60 25 48 56 hvcurveto
          -65 hlineto
          hintmask 11100110
          -23 -2 -11 -8 -15 -50 -43 31 -56 hhcurveto
          hintmask 11100101
          -57 callsubr
          hintmask 11011001
          164 -631 -104 callsubr
        </CharString>
        <CharString name="p">
          -152 -21 161 -39 callsubr
          -12 -20 hstemhm
          67 88 275 91 hintmask 11101100
          38 callsubr
          193 -79 82 -129 -68 -60 -28 -55 -35 hvcurveto
          -6 hlineto
          hintmask 11011100
          -11 71 rlineto
          -66 hlineto
          224 -465 rmoveto
          -97 -39 71 127 hvcurveto
          4 vlineto
          hintmask 11101100
          130 40 72 96 99 40 -52 -150 vhcurveto
          -4 vlineto
          hintmask 11011100
          -147 -39 -51 -100 vhcurveto
          endchar
        </CharString>
        <CharString name="paragraph">
          -146 625 61 hstem
          233 84 66 84 vstem
          233 -168 rmoveto
          84 793 66 -793 84 793 61 61 -266 hlineto
          -136 -108 -58 -160 -145 105 -70 110 hvcurveto
          endchar
        </CharString>
        <CharString name="parenleft">
          -350 735 -20 hstem
          60 93 vstem
          239 -157 rmoveto
          59 hlineto
          -82 122 -63 169 156 vvcurveto
          156 63 167 82 122 vhcurveto
          -59 hlineto
          -115 -120 -64 -157 -160 vvcurveto
          -168 64 -161 115 -126 vhcurveto
          endchar
        </CharString>
        <CharString name="parenright">
          -350 735 -20 hstem
          205 93 vstem
          60 -157 rmoveto
          59 hlineto
          115 123 64 158 164 vvcurveto
          164 -64 160 -115 123 vhcurveto
          -59 hlineto
          82 -119 63 -164 -152 vvcurveto
          -159 -63 -173 -82 -125 vhcurveto
          endchar
        </CharString>
        <CharString name="partialdiff">
          -189 -12 73 321 67 217 69 hstem
          46 90 225 84 vstem
          216 -12 rmoveto
          148 81 148 247 250 -111 102 -113 -51 -34 -13 -16 -29 hvcurveto
          -74 vlineto
          18 25 32 16 46 hhcurveto
          87 64 -110 -142 -9 0 -19 -2 -6 hvcurveto
          -4 hlineto
          26 -13 -39 43 -69 hhcurveto
          -97 -91 -93 -152 -116 58 -100 112 hvcurveto
          7 73 rmoveto
          -55 -32 56 84 97 48 84 64 57 36 -46 -37 11 hvcurveto
          -122 -9 -46 -116 -74 hhcurveto
          endchar
        </CharString>
        <CharString name="percent">
          206 -12 59 -26 -21 290 59 -12 59 243 59 -12 -20 hstemhm
          61 77 150 76 162 77 150 76 hintmask 1001101111000000
          213 337 36 callsubr
          hintmask 0101011111000000
          -55 -337 rmoveto
          79 hlineto
          496 686 rlineto
          -80 hlineto
          -440 -290 rmoveto
          -60 -15 44 73 hvcurveto
          8 vlineto
          hintmask 1001101111000000
          74 15 44 60 60 15 -44 -74 vhcurveto
          -8 vlineto
          hintmask 0101011111000000
          -73 -15 -44 -60 vhcurveto
          hintmask 1010101111000000
          465 -408 36 callsubr
          59 vmoveto
          -60 -15 45 76 hvcurveto
          4 vlineto
          74 15 44 60 60 15 -44 -74 vhcurveto
          -4 vlineto
          -76 -15 -45 -60 vhcurveto
          endchar
        </CharString>
        <CharString name="period">
          89 callsubr
          hstem
          91 100 vstem
          91 hmoveto
          100 108 -100 hlineto
          endchar
        </CharString>
        <CharString name="periodcentered">
          -350 303 108 hstem
          116 100 vstem
          116 303 -17 callgsubr
          endchar
        </CharString>
        <CharString name="perthousand">
          317 -14 59 -24 -21 288 59 -10 59 243 59 -12 -20 hstemhm
          18 77 130 76 71 77 130 76 44 77 130 76 -9 callsubr
          hintmask 0101101100000000
          160 337 rmoveto
          -4 callsubr
          -42 -337 rmoveto
          64 hlineto
          hintmask 0001011100000000
          375 686 rlineto
          -65 hlineto
          -332 -290 rmoveto
          -54 -11 44 73 hvcurveto
          8 vlineto
          hintmask 0000101100000000
          74 11 44 54 54 11 -44 -74 vhcurveto
          -8 vlineto
          hintmask 0001011100000000
          -73 -11 -44 -54 vhcurveto
          hintmask 1010000011110000
          354 -410 rmoveto
          -4 callsubr
          327 hmoveto
          -4 callsubr
          -327 59 rmoveto
          30 callsubr
          327 hmoveto
          30 callsubr
          endchar
        </CharString>
        <CharString name="peseta">
          411 -12 72 -71 72 -40 -21 54 7 202 83 107 73 -61 73 65 83 hstemhm
          79 95 347 88 59 85 -73 91 184 87 -78 91 -9 callsubr
          hintmask 0100110111010100
          625 -11 rmoveto
          24 29 6 8 17 hvcurveto
          hintmask 0001110111010100
          51 vlineto
          hintmask 1000101111010100
          -39 28 53 -27 85 hhcurveto
          111 83 49 113 hvcurveto
          198 -284 -69 115 vvcurveto
          29 14 42 74 vhcurveto
          hintmask 1000101111011000
          72 24 -40 -41 hvcurveto
          -9 86 vlineto
          2 1 10 7 vvcurveto
          78 -60 66 -113 vhcurveto
          hintmask 0010110111010100
          -31 -28 -4 -8 -25 hvcurveto
          -176 146 -68 hlineto
          -19 -146 rlineto
          -38 hlineto
          96 -17 -70 64 -121 hhcurveto
          -197 -686 95 263 102 hlineto
          122 80 75 115 10 hvcurveto
          33 -353 hlineto
          hintmask 0100110111010100
          75 callsubr
          hintmask 1000110111100100
          -451 357 rmoveto
          257 97 61 callgsubr
          595 -286 rmoveto
          -63 -50 28 66 hvcurveto
          10 -84 vlineto
          hintmask 0100110111100100
          -2 -1 -6 -14 vvcurveto
          -29 7 -28 16 -24 vhcurveto
          -38 hlineto
          -30 -14 16 31 hvcurveto
          345 vlineto
          hintmask 1000110111010100
          85 hlineto
          -9 -19 -5 -22 -24 -189 284 74 -135 vvcurveto
          hintmask 1000110111100100
          -51 -45 -27 -53 vhcurveto
          endchar
        </CharString>
        <CharString name="pi">
          7 21 -21 453 73 hstem
          172 90 201 89 vstem
          92 hmoveto
          88 hlineto
          40 89 33 235 9 129 rrcurveto
          201 -306 hlineto
          -80 8 -51 11 -16 vhcurveto
          86 hlineto
          -10 30 -6 44 82 vvcurveto
          297 97 vlineto
          10 73 rlineto
          -455 hlineto
          -96 -56 -11 -19 -28 hvcurveto
          15 -56 rlineto
          9 26 37 4 70 hhcurveto
          -3 -129 -35 -218 -42 -106 rrcurveto
          endchar
        </CharString>
        <CharString name="plus">
          -99 21 -21 213 84 hstem
          250 83 vstem
          250 hmoveto
          46 callsubr
          endchar
        </CharString>
        <CharString name="plusminus">
          -134 0 83 257 84 hstem
          233 83 vstem
          233 127 rmoveto
          46 callsubr
          -195 -340 rmoveto
          65 callsubr
        </CharString>
        <CharString name="product">
          140 643 80 hstem
          140 95 352 94 vstem
          140 -128 rmoveto
          95 771 352 -771 94 771 101 80 -741 -80 99 hlineto
          endchar
        </CharString>
        <CharString name="q">
          -152 -21 161 -39 callsubr
          -12 -20 79 callsubr
          hintmask 11101100
          401 -173 rmoveto
          88 hlineto
          hintmask 11011100
          699 -66 vlineto
          hintmask 11101100
          -11 -71 rlineto
          -6 hlineto
          55 -35 -60 28 -68 hhcurveto
          -129 -79 -82 -193 -191 81 -84 119 74 51 21 51 35 hvcurveto
          6 hlineto
          -136 1 -69 callsubr
          endchar
        </CharString>
        <CharString name="question">
          0 108 513 77 hstemhm
          52 91 82 100 -93 87 87 91 hintmask 11101100
          232 180 rmoveto
          87 41 hlineto
          112 178 -12 199 vvcurveto
          110 -86 68 -120 -162 -77 -92 -112 -12 3 -23 0 vhcurveto
          89 hlineto
          0 -1 11 16 vvcurveto
          46 14 89 127 107 15 -76 -36 vhcurveto
          -126 -174 -13 -134 vvcurveto
          hintmask 11110100
          -7 -236 -17 callgsubr
          endchar
        </CharString>
        <CharString name="questiondown">
          -72 -172 77 513 108 hstemhm
          86 91 81 100 -94 87 88 91 hintmask 00000000
          hintmask 11110100
          258 418 -17 callgsubr
          34 -698 rmoveto
          162 76 92 112 12 -3 23 0 hvcurveto
          -89 hlineto
          0 1 -11 -16 vvcurveto
          -46 -14 -89 -126 -107 -15 76 36 vhcurveto
          hintmask 11101100
          126 174 13 134 vvcurveto
          56 -87 -41 vlineto
          -112 -178 12 -199 vvcurveto
          hintmask 11110100
          -110 86 -68 120 vhcurveto
          endchar
        </CharString>
        <CharString name="quotedbl">
          -328 408 278 hstemhm
          46 100 62 100 hintmask 00000000
          hintmask 11100000
          72 408 32 callgsubr
          188 -132 32 callgsubr
          endchar
        </CharString>
        <CharString name="quotedblbase">
          -350 0 108 hstem
          42 100 52 100 vstem
          42 -134 rmoveto
          -42 callgsubr
          112 -134 rmoveto
          -42 callgsubr
          endchar
        </CharString>
        <CharString name="quotedblleft">
          -350 444 108 134 -20 hstem
          39 100 52 100 vstem
          39 444 11 callgsubr
          152 -99 11 callgsubr
          endchar
        </CharString>
        <CharString name="quotedblright">
          -350 578 108 hstem
          42 100 52 100 vstem
          42 444 rmoveto
          -42 callgsubr
          112 -134 rmoveto
          -42 callgsubr
          endchar
        </CharString>
        <CharString name="quoteleft">
          -461 444 108 134 -20 hstem
          66 100 vstem
          66 444 11 callgsubr
          endchar
        </CharString>
        <CharString name="quotereversed">
          -461 578 108 hstem
          67 100 vstem
          115 454 rmoveto
          52 hlineto
          -40 124 rlineto
          40 108 -100 -99 hlineto
          endchar
        </CharString>
        <CharString name="quoteright">
          -461 578 108 hstem
          56 100 vstem
          56 444 rmoveto
          -42 callgsubr
          endchar
        </CharString>
        <CharString name="quotesinglbase">
          -461 0 108 hstem
          61 100 vstem
          61 -134 rmoveto
          -42 callgsubr
          endchar
        </CharString>
        <CharString name="quotesingle">
          -492 686 -20 hstem
          46 100 vstem
          72 408 32 callgsubr
          endchar
        </CharString>
        <CharString name="r">
          -350 21 82 callgsubr
          hintmask 11001000
          67 hmoveto
          62 callsubr
          99 62 35 67 vhcurveto
          37 hlineto
          hintmask 10011000
          85 vlineto
          hintmask 11001000
          0 -19 8 -28 -72 -35 -47 -44 -17 vhcurveto
          -6 hlineto
          hintmask 10101000
          -10 79 rlineto
          -67 hlineto
          endchar
        </CharString>
        <CharString name="racute">
          -2 callsubr
          81 132 hstemhm
          67 88 hintmask 11001100
          129 -76 callgsubr
          -148 -723 -64 callgsubr
        </CharString>
        <CharString name="radical">
          -134 -148 1005 hstem
          30 518 vstem
          296 -148 -32 callsubr
          162 1005 rlineto
          -71 hlineto
          -137 -887 -5 21 -6 25 -10 28 rlinecurve
          -127 347 -162 -68 20 -60 77 30 rlineto
          endchar
        </CharString>
        <CharString name="rcaron">
          -2 callsubr
          78 135 hstemhm
          67 88 hintmask 11001100
          125 588 -99 callgsubr
          48 -723 -64 callgsubr
        </CharString>
        <CharString name="rcommaaccent">
          -350 -149 91 79 -20 callgsubr
          -756 vmoveto
          -64 callsubr
        </CharString>
        <CharString name="registered">
          54 -12 47 263 56 139 56 102 47 hstem
          13 49 162 68 179 69 134 -44 callgsubr
          -144 103 rmoveto
          68 160 111 hlineto
          80 -160 rlineto
          72 hlineto
          -87 171 rlineto
          48 19 24 43 55 vvcurveto
          72 -42 51 -84 vhcurveto
          -190 hlineto
          68 -195 rmoveto
          139 112 vlineto
          43 24 -23 -44 -46 -27 -26 -40 hvcurveto
          endchar
        </CharString>
        <CharString name="revlogicalnot">
          -99 360 93 hstem
          56 84 vstem
          56 197 rmoveto
          84 163 389 93 -473 hlineto
          endchar
        </CharString>
        <CharString name="ring">
          -350 566 45 102 45 hstem
          71 45 102 45 vstem
          167 566 -73 callsubr
          endchar
        </CharString>
        <CharString name="s">
          -183 -12 72 405 73 7 callgsubr
          hintmask 00000000
          hintmask 11100100
          247 -12 rmoveto
          123 91 49 113 hvcurveto
          hintmask 11010100
          -47 callgsubr
          hintmask 11011000
          -75 callgsubr
          hintmask 11010100
          -47 callsubr
          hintmask 11100100
          -60 callgsubr
          endchar
        </CharString>
        <CharString name="sacute">
          49 callsubr
          53 132 7 callgsubr
          hintmask 11101010
          63 callgsubr
          hintmask 11110010
          -51 -80 callsubr
        </CharString>
        <CharString name="sacute.loclPLK">
          49 callsubr
          53 132 7 callgsubr
          hintmask 11101010
          212 31 callsubr
          hintmask 11110010
          9 -80 callsubr
        </CharString>
        <CharString name="scaron">
          49 callsubr
          50 135 7 callgsubr
          hintmask 11101010
          208 588 -99 callgsubr
          hintmask 11110010
          145 -80 callsubr
        </CharString>
        <CharString name="scedilla">
          -183 34 callsubr
          25 71 75 callgsubr
          156 72 -4 87 -78 91 hintmask 1001101001000000
          461 150 rmoveto
          -47 callgsubr
          hintmask 1001101010000000
          -75 callgsubr
          hintmask 1001101001000000
          -47 callsubr
          hintmask 1001110001000000
          -74 -59 28 66 hvcurveto
          10 -87 vlineto
          -2 -1 -6 -14 vvcurveto
          -72 53 -71 131 -10 vhcurveto
          hintmask 1011101100000000
          -12 -66 rlineto
          -40 callsubr
          hintmask 0101101001000000
          -49 vlineto
          hintmask 1011101100000000
          -12 callgsubr
          hintmask 1001101001000000
          4 25 rlineto
          108 8 76 49 104 vvcurveto
          endchar
        </CharString>
        <CharString name="scircumflex">
          49 callsubr
          50 135 -56 56 7 callgsubr
          hintmask 11100101
          102 -13 callgsubr
          hintmask 11010101
          58 79 rlineto
          hintmask 11101001
          -101 callgsubr
          39 -735 rmoveto
          123 91 49 113 hvcurveto
          hintmask 11100101
          -47 callgsubr
          hintmask 11100110
          -75 callgsubr
          hintmask 11100101
          -47 callsubr
          hintmask 11101001
          -60 callgsubr
          endchar
        </CharString>
        <CharString name="scommaaccent">
          -183 -149 91 46 91 callgsubr
          88 67 -60 callsubr
          -218 rmoveto
          -64 callsubr
        </CharString>
        <CharString name="second">
          -329 515 171 hstem
          49 271 vstem
          49 515 48 callsubr
          114 -171 48 callsubr
          endchar
        </CharString>
        <CharString name="section">
          -182 72 736 72 hstemhm
          43 88 -74 94 254 94 -74 88 hintmask 00000000
          hintmask 11011000
          269 -182 rmoveto
          146 84 57 93 66 -37 40 -47 30 hvcurveto
          hintmask 11010100
          49 25 49 45 65 207 -362 -39 136 vvcurveto
          28 13 55 112 vhcurveto
          hintmask 11011000
          100 30 -41 -41 hvcurveto
          -9 92 vlineto
          2 1 10 7 vvcurveto
          78 -74 66 -138 -146 -84 -57 -93 -66 35 -41 49 -30 vhcurveto
          hintmask 11101000
          -49 -24 -49 -45 -65 -207 362 39 -137 vvcurveto
          -27 -14 -55 -111 vhcurveto
          hintmask 11010100
          -100 -30 41 41 hvcurveto
          9 -92 vlineto
          -2 -1 -10 -7 vvcurveto
          hintmask 11011000
          -78 74 -66 138 vhcurveto
          hintmask 11100100
          83 318 rmoveto
          -105 42 -116 25 95 vvcurveto
          37 28 28 44 16 vhcurveto
          106 -41 116 -25 -95 vvcurveto
          -37 -30 -28 -43 -17 vhcurveto
          endchar
        </CharString>
        <CharString name="semicolon">
          89 callsubr
          310 108 hstem
          89 100 vstem
          89 418 -17 callgsubr
          -660 vmoveto
          -42 callgsubr
          endchar
        </CharString>
        <CharString name="seven">
          21 -21 602 84 hstem
          144 97 vstem
          144 hmoveto
          98 hlineto
          -1 24 0 8 19 vvcurveto
          212 157 227 125 143 vhcurveto
          53 -486 -84 357 vlineto
          -111 -144 -139 -221 -237 vvcurveto
          endchar
        </CharString>
        <CharString name="seveneighths">
          74 callsubr
          272 56 12 -20 hstemhm
          117 68 333 56 callgsubr
          hintmask 1111011001000000
          91 -12 rmoveto
          72 hlineto
          hintmask 1110111001000000
          -22 callsubr
          -520 -370 rmoveto
          69 hlineto
          -1 18 0 8 9 vvcurveto
          hintmask 1111011001000000
          102 78 109 61 70 vhcurveto
          42 -260 -56 179 vlineto
          hintmask 1110111001000000
          -59 -74 -67 -104 -124 vvcurveto
          hintmask 1111011001000000
          528 -340 19 callgsubr
          hintmask 1111010110000000
          -27 callsubr
          hintmask 1111011001000000
          48 callgsubr
          hintmask 1111010110000000
          -26 callgsubr
          hintmask 1111011001000000
          -33 callgsubr
        </CharString>
        <CharString name="six">
          -12 73 308 72 184 73 hstemhm
          38 90 277 90 -68 91 hintmask 11110100
          290 -12 rmoveto
          131 97 87 139 127 -70 100 -148 -70 -62 -27 -48 -40 hvcurveto
          159 2 30 100 122 hhcurveto
          hintmask 11111000
          82 41 -51 -89 hvcurveto
          90 hlineto
          121 -61 92 -147 -162 -87 -95 -280 vhcurveto
          hintmask 11110100
          -254 95 -81 157 vhcurveto
          -7 73 rmoveto
          -99 -46 69 84 86 46 69 99 99 45 -67 -84 -86 -45 -71 -99 hvcurveto
          endchar
        </CharString>
        <CharString name="slash">
          92 callsubr
          1 -49 rmoveto
          71 hlineto
          205 784 rlineto
          -70 hlineto
          endchar
        </CharString>
        <CharString name="space">
          -405 endchar
        </CharString>
        <CharString name="sterling">
          0 79 225 72 249 54 callsubr
          225 rlineto
          166 72 -165 139 16 callgsubr
          -123 -90 -72 90 -225 -76 vlineto
          endchar
        </CharString>
        <CharString name="summation">
          30 -128 88 685 78 hstemhm
          59 119 -109 132 hintmask 00000000
          hintmask 11100000
          59 -128 rmoveto
          631 88 -512 4 hlineto
          310 351 rlineto
          hintmask 11010000
          -287 326 rlineto
          4 470 78 -602 -67 vlineto
          308 -357 rlineto
          hintmask 11100000
          -318 -364 rlineto
          endchar
        </CharString>
        <CharString name="t">
          -405 -11 72 392 73 hstem
          82 88 vstem
          186 -11 rmoveto
          -67 callgsubr
          75 callsubr
          endchar
        </CharString>
        <CharString name="tbar">
          -405 -11 72 202 62 128 73 hstem
          82 88 vstem
          186 -11 rmoveto
          24 32 6 8 17 hvcurveto
          58 -45 vlineto
          -30 -14 16 31 hvcurveto
          155 89 62 -89 128 89 73 -89 146 -68 vlineto
          -19 -146 rlineto
          -65 -73 64 -128 -64 -62 64 -163 hlineto
          75 callsubr
          endchar
        </CharString>
        <CharString name="tcaron">
          -308 -11 72 392 73 1 196 -91 91 hstemhm
          82 88 117 85 hintmask 00000000
          hintmask 10101100
          287 527 rmoveto
          44 hlineto
          hintmask 11011100
          1 callsubr
          -135 -643 rmoveto
          -67 callgsubr
          75 callsubr
          endchar
        </CharString>
        <CharString name="thorn">
          -152 -21 161 -39 callsubr
          185 -20 hstem
          67 88 275 91 vstem
          38 callsubr
          59 callgsubr
          224 -662 8 callgsubr
        </CharString>
        <CharString name="three">
          -12 73 251 73 240 73 hstemhm
          35 89 -74 89 275 91 -76 91 hintmask 00000000
          hintmask 11110010
          281 -12 rmoveto
          140 99 74 122 91 -55 55 -74 22 hvcurveto
          4 vlineto
          hintmask 11101100
          65 29 49 44 81 vvcurveto
          122 -92 66 -136 -133 -94 -74 -114 vhcurveto
          -18 89 9 vlineto
          85 59 39 80 72 64 -35 -85 -81 -67 -39 -75 vhcurveto
          -75 -73 72 hlineto
          hintmask 11110010
          82 78 -25 -97 -90 -63 -39 -93 -94 -55 45 85 hvcurveto
          11 -89 -8 vlineto
          -125 87 -81 159 vhcurveto
          endchar
        </CharString>
        <CharString name="threeeighths">
          74 callsubr
          -30 55 105 56 99 55 hstemhm
          38 41 callgsubr
          238 56 callgsubr
          -9 callsubr
          hintmask 1101111000110010
          169 328 4 callgsubr
          hintmask 1101110101010010
          30 -66 callgsubr
          hintmask 1101110110010010
          -32 -56 hlineto
          hintmask 1101111000110010
          -41 callsubr
          -69 47 -43 84 vhcurveto
          -61 -340 6 callgsubr
          8 -710 19 callgsubr
          hintmask 1110110100101100
          -27 callsubr
          hintmask 1101110100110010
          -38 -18 -15 -30 -34 vvcurveto
          hintmask 1101111000110010
          -61 37 -48 90 vhcurveto
          hintmask 1110110100101100
          -26 callgsubr
          hintmask 1101110100110010
          -33 callgsubr
        </CharString>
        <CharString name="threequarters">
          77 callsubr
          55 105 56 99 55 hstemhm
          44 41 callgsubr
          366 63 -9 callsubr
          hintmask 1001111000110000
          175 328 4 callgsubr
          hintmask 1001110101010000
          30 -66 callgsubr
          hintmask 1001110110010000
          -32 -56 hlineto
          hintmask 1001111000110000
          -41 callsubr
          -69 47 -43 84 vhcurveto
          hintmask 0101111000110000
          -67 -340 6 callgsubr
          hintmask 1001110100110000
          15 -698 rmoveto
          63 hlineto
          hintmask 0011110100110000
          82 45 vlineto
          hintmask 1001110100110000
          24 callgsubr
          hintmask 0011110100110000
          72 callgsubr
        </CharString>
        <CharString name="tilde">
          -350 619 90 callsubr
          3 -23 callgsubr
          hintmask 00000000
          hintmask 10110000
          3 43 callsubr
          hintmask 01110000
          -18 callsubr
          hintmask 10110000
          50 43 -31 56 hhcurveto
          hintmask 01110000
          60 25 48 56 hvcurveto
          -65 hlineto
          hintmask 10110000
          -88 callgsubr
          endchar
        </CharString>
        <CharString name="trademark">
          317 282 89 253 63 hstem
          222 67 196 61 297 67 vstem
          222 283 rmoveto
          67 341 141 63 -350 -63 142 hlineto
          263 -342 rmoveto
          61 329 5 hlineto
          111 -329 rlineto
          64 hlineto
          112 329 rlineto
          5 -329 67 405 -104 hlineto
          -105 -316 rlineto
          -5 hlineto
          -105 316 rlineto
          -106 hlineto
          endchar
        </CharString>
        <CharString name="two">
          0 84 538 76 hstem
          47 91 277 91 vstem
          39 hmoveto
          471 84 -368 hlineto
          5 11 7 12 11 12 rrcurveto
          96 111 245 95 173 vvcurveto
          141 -96 59 -122 -129 -112 -61 -147 -24 3 -16 0 vhcurveto
          88 41 hlineto
          71 38 60 107 108 24 -66 -50 -34 -13 -30 -21 -28 vhcurveto
          -92 -123 -250 -82 -180 vvcurveto
          endchar
        </CharString>
        <CharString name="u">
          -41 callgsubr
          -24 callsubr
          hintmask 10111000
          228 -12 rmoveto
          72 64 24 59 41 hvcurveto
          7 hlineto
          hintmask 01111000
          -77 callgsubr
          hintmask 10111000
          -101 callsubr
          vhcurveto
          endchar
        </CharString>
        <CharString name="uacute">
          -18 callgsubr
          239 -76 callgsubr
          -97 -735 -90 callgsubr
        </CharString>
        <CharString name="ubreve">
          -41 callgsubr
          100 64 -64 117 -24 callsubr
          hintmask 10101110
          276 606 -74 callgsubr
          hintmask 10110110
          -56 callsubr
          hintmask 10101110
          -89 callgsubr
          -48 -618 rmoveto
          72 64 24 59 41 hvcurveto
          7 hlineto
          hintmask 01101110
          -77 callgsubr
          hintmask 10101110
          -101 callsubr
          vhcurveto
          endchar
        </CharString>
        <CharString name="ucircumflex">
          -41 callgsubr
          82 135 -56 56 -24 callsubr
          hintmask 10110110
          129 -13 callgsubr
          hintmask 10101110
          58 79 rlineto
          hintmask 10110110
          -101 callgsubr
          -7 83 callsubr
          hintmask 01110110
          -77 callgsubr
          hintmask 10110110
          -101 callsubr
          vhcurveto
          endchar
        </CharString>
        <CharString name="udieresis">
          -41 callgsubr
          122 95 hstemhm
          64 88 -12 87 100 87 -13 88 hintmask 00000000
          hintmask 10110110
          140 -49 callgsubr
          hintmask 10111001
          -99 83 callsubr
          hintmask 01111001
          -77 callgsubr
          hintmask 10111001
          -101 callsubr
          vhcurveto
          endchar
        </CharString>
        <CharString name="ugrave">
          -18 callgsubr
          239 -44 callsubr
          97 -732 -90 callgsubr
        </CharString>
        <CharString name="uhorn">
          -41 callgsubr
          109 108 -24 callsubr
          -3 120 hintmask 00000000
          hintmask 10111010
          486 723 -25 callsubr
          hintmask 10111100
          -14 -53 -46 -27 -75 -9 rrcurveto
          -3 -311 hlineto
          -101 callsubr
          72 64 24 59 41 vhcurveto
          7 hlineto
          hintmask 01111100
          10 -71 rlineto
          67 491 hlineto
          hintmask 10111010
          14 callsubr
          endchar
        </CharString>
        <CharString name="uhungarumlaut">
          -18 callgsubr
          169 591 -59 callsubr
          -142 -735 -90 callgsubr
        </CharString>
        <CharString name="umacron">
          -41 callgsubr
          121 72 -24 callsubr
          hintmask 10111100
          124 627 -51 callgsubr
          104 -711 -90 callgsubr
        </CharString>
        <CharString name="underscore">
          -124 53 hstem
          0 556 vstem
          -124 vmoveto
          556 53 -556 hlineto
          endchar
        </CharString>
        <CharString name="underscoredbl">
          -131 -217 53 40 53 hstem
          0 551 vstem
          -124 vmoveto
          551 53 -551 hlineto
          -146 vmoveto
          551 53 -551 hlineto
          endchar
        </CharString>
        <CharString name="uni00A0">
          -405 endchar
        </CharString>
        <CharString name="uni00AD">
          38 callgsubr
        </CharString>
        <CharString name="uni00B2">
          -350 335 56 252 56 hstemhm
          41 72 callsubr
          hintmask 00000000
          hintmask 11100000
          41 335 24 callsubr
          hintmask 11011000
          52 38 57 39 68 23 callsubr
          -15 -7 -14 -10 -13 vhcurveto
          -16 -20 -25 -18 -25 -19 rrcurveto
          hintmask 11100000
          -50 -37 -53 -38 -62 vvcurveto
          endchar
        </CharString>
        <CharString name="uni00B3">
          -350 328 55 105 56 99 55 hstemhm
          38 63 -56 63 25 105 -12 63 -57 65 hintmask 00000000
          hintmask 11110001
          169 328 rmoveto
          75 53 41 65 41 -23 28 -36 16 hvcurveto
          2 vlineto
          hintmask 11101010
          29 -66 callgsubr
          hintmask 11101100
          -32 -56 hlineto
          hintmask 11110001
          -41 callsubr
          -69 47 -43 84 vhcurveto
          endchar
        </CharString>
        <CharString name="uni00B5">
          -43 callsubr
        </CharString>
        <CharString name="uni00B9">
          -350 328 56 225 40 -40 77 hstemhm
          139 63 hintmask 10110000
          51 328 rmoveto
          231 56 -80 302 -30 hlineto
          hintmask 11010000
          52 callsubr
          hintmask 10110000
          67 callgsubr
          endchar
        </CharString>
        <CharString name="uni0162">
          -72 34 callsubr
          57 -21 603 83 hstemhm
          258 95 -4 72 hintmask 10111100
          353 hmoveto
          7 callsubr
          -603 15 vlineto
          -14 -77 rlineto
          hintmask 10111010
          -40 callsubr
          hintmask 01111100
          -49 vlineto
          hintmask 10111010
          -12 callgsubr
          hintmask 10111100
          6 36 rlineto
          endchar
        </CharString>
        <CharString name="uni0163">
          -405 34 callsubr
          25 87 callgsubr
          23 72 hintmask 00000000
          hintmask 10111100
          173 -36 rmoveto
          hintmask 10011100
          4 25 rlineto
          9 hlineto
          -67 callgsubr
          hintmask 10111100
          -34 10 -35 27 -21 vhcurveto
          hintmask 10111110
          -16 -87 rlineto
          -40 callsubr
          hintmask 01011100
          -49 vlineto
          hintmask 10011110
          -5 27 36 -3 32 hhcurveto
          47 71 14 67 hvcurveto
          hintmask 10111100
          68 callgsubr
          vhcurveto
          endchar
        </CharString>
        <CharString name="uni018F">
          75 -12 81 214 88 246 81 hstem
          47 98 465 98 vstem
          372 -12 rmoveto
          228 108 109 241 247 -113 113 -224 -191 -133 -82 -162 hvcurveto
          91 hlineto
          119 103 44 120 159 80 -78 -168 10 vhcurveto
          -563 -62 hlineto
          -230 117 -91 208 vhcurveto
          8 81 rmoveto
          -141 -94 59 155 hvcurveto
          462 hlineto
          -154 -16 -69 -60 -142 hhcurveto
          endchar
        </CharString>
        <CharString name="uni019D">
          39 32 callsubr
          686 -20 hstemhm
          89 callgsubr
          hintmask 10111100
          58 55 callsubr
          507 vlineto
          72 vlineto
          4 1 13 -18 14 -17 13 -18 rlinecurve
          350 -466 rlineto
          81 686 -89 -462 hlineto
          -47 vlineto
          -4 -1 -24 32 -362 478 rlineto
          -85 -751 hlineto
          -31 -16 -17 -31 vhcurveto
          -43 hlineto
          hintmask 01111100
          -57 vlineto
          hintmask 10111100
          -35 callsubr
        </CharString>
        <CharString name="uni01C4">
          650 0 83 520 83 47 135 0 callsubr
          404 98 vstem
          986 733 -99 callgsubr
          -801 -868 rmoveto
          -46 callgsubr
          666 -686 rmoveto
          -74 callsubr
          -571 34 -68 callsubr
          endchar
        </CharString>
        <CharString name="uni01C5">
          539 0 73 -73 83 370 73 62 135 -120 83 hstemhm
          79 95 404 98 hintmask 00000000
          hintmask 10110110
          930 588 -99 callgsubr
          -745 -723 rmoveto
          254 hlineto
          214 129 105 238 hvcurveto
          hintmask 01101110
          238 -129 105 -214 vhcurveto
          -254 hlineto
          95 -603 -68 callsubr
          hintmask 10101110
          413 -83 rmoveto
          -82 callsubr
          endchar
        </CharString>
        <CharString name="uni01C6">
          373 -12 73 -61 73 380 73 -61 73 50 135 -33 callsubr
          521 600 -99 callgsubr
          -78 -723 rmoveto
          -82 callsubr
          hintmask 10011110
          -315 14 -69 callsubr
          endchar
        </CharString>
        <CharString name="uni01C7">
          373 -12 81 -69 83 603 -20 hstemhm
          79 95 411 95 203 95 hintmask 01111100
          -1 callgsubr
          hintmask 10111100
          702 -698 -78 callsubr
        </CharString>
        <CharString name="uni01C8">
          95 -1 callsubr
          113 83 443 -20 119 98 -37 -20 hstemhm
          79 95 449 88 hintmask 10111011
          623 34 callgsubr
          -544 -723 rmoveto
          447 83 -352 hlineto
          hintmask 10110111
          603 -95 vlineto
          522 -868 -70 callgsubr
          hintmask 01111011
          -57 vlineto
          hintmask 10110111
          -35 callsubr
        </CharString>
        <CharString name="uni01C9">
          -239 19 callsubr
          119 98 hstemhm
          67 88 134 88 hintmask 10111110
          67 hmoveto
          88 723 -88 hlineto
          222 -98 43 callgsubr
          -22 39 callgsubr
          hintmask 01111110
          -57 vlineto
          hintmask 10111110
          -35 callsubr
        </CharString>
        <CharString name="uni01CA">
          539 -12 81 -48 0 callgsubr
          hstemhm
          89 callgsubr
          108 95 203 95 hintmask 00000000
          hintmask 01111110
          1 callgsubr
          hintmask 10111110
          868 -698 -78 callsubr
        </CharString>
        <CharString name="uni01CB">
          261 19 callsubr
          119 98 -37 -20 hstemhm
          89 callgsubr
          146 88 hintmask 1011101110000000
          789 34 callgsubr
          -710 -723 rmoveto
          89 471 hlineto
          47 vlineto
          4 1 26 -35 364 -484 rlineto
          81 hlineto
          hintmask 1011011110000000
          686 -89 -462 vlineto
          -47 vlineto
          -4 -1 -24 32 -362 478 rlineto
          -85 hlineto
          688 -868 -70 callgsubr
          hintmask 0111101110000000
          -57 vlineto
          hintmask 1011011110000000
          -35 callsubr
        </CharString>
        <CharString name="uni01CC">
          95 32 callsubr
          465 73 -12 -20 119 98 42 callsubr
          131 88 hintmask 1011011110000000
          623 34 callgsubr
          -556 -723 rmoveto
          -87 callgsubr
          hintmask 1010111110000000
          -10 71 rlineto
          -67 hlineto
          534 -708 -70 callgsubr
          hintmask 0111011110000000
          -57 vlineto
          hintmask 1010111110000000
          -35 callsubr
        </CharString>
        <CharString name="uni01CD">
          -71 callgsubr
          47 135 hstem
          7 653 vstem
          292 733 -99 callgsubr
          -179 -868 -103 callsubr
        </CharString>
        <CharString name="uni01CE">
          -70 callsubr
          50 135 59 callsubr
          236 588 -99 callgsubr
          80 -2 callgsubr
          hintmask 01111101
          -86 callgsubr
          hintmask 10111011
          -106 callsubr
          hintmask 10111101
          -104 callgsubr
          endchar
        </CharString>
        <CharString name="uni01CF">
          -7 callsubr
          67 135 hstem
          92 95 vstem
          97 733 -99 callgsubr
          101 -868 -30 callsubr
        </CharString>
        <CharString name="uni01D0">
          2 callsubr
          82 135 hstem
          95 88 vstem
          97 588 -99 callgsubr
          104 -723 -23 callsubr
        </CharString>
        <CharString name="uni01D1">
          -51 callsubr
          35 135 -28 callgsubr
          347 733 -99 callgsubr
          148 -880 -107 callgsubr
          endchar
        </CharString>
        <CharString name="uni01D2">
          -55 callsubr
          50 135 79 callgsubr
          vstem
          236 588 -99 callgsubr
          148 -92 callsubr
        </CharString>
        <CharString name="uni01D3">
          -37 callgsubr
          67 135 2 callgsubr
          319 733 -99 callgsubr
          147 -880 rmoveto
          -103 callgsubr
          endchar
        </CharString>
        <CharString name="uni01D4">
          -41 callgsubr
          82 135 -24 callsubr
          hintmask 10111100
          235 588 -99 callgsubr
          99 -735 -90 callgsubr
        </CharString>
        <CharString name="uni01D5">
          -37 callgsubr
          107 95 71 72 5 callsubr
          208 939 -51 callgsubr
          16 -238 -88 callsubr
          -51 -880 rmoveto
          -103 callgsubr
          endchar
        </CharString>
        <CharString name="uni01D6">
          -41 callgsubr
          122 95 71 72 8 callsubr
          124 794 -51 callgsubr
          hintmask 1011101100000000
          16 -238 -82 callgsubr
        </CharString>
        <CharString name="uni01D7">
          -37 callgsubr
          107 95 35 132 5 callsubr
          323 903 -96 callgsubr
          -185 -262 -88 callsubr
          -51 -880 rmoveto
          -103 callgsubr
          endchar
        </CharString>
        <CharString name="uni01D8">
          -41 callgsubr
          122 95 35 132 8 callsubr
          239 758 -96 callgsubr
          hintmask 1011101100000000
          -185 -262 -82 callgsubr
        </CharString>
        <CharString name="uni01D9">
          -37 callgsubr
          107 95 32 135 5 callsubr
          319 900 -99 callgsubr
          11 -262 -88 callsubr
          -51 -880 rmoveto
          -103 callgsubr
          endchar
        </CharString>
        <CharString name="uni01DA">
          -41 callgsubr
          122 95 32 135 8 callsubr
          235 755 -99 callgsubr
          hintmask 1011101100000000
          11 -262 -82 callgsubr
        </CharString>
        <CharString name="uni01DB">
          -37 callgsubr
          107 95 35 132 5 callsubr
          323 903 -81 callsubr
          9 -259 -88 callsubr
          -51 -880 rmoveto
          -103 callgsubr
          endchar
        </CharString>
        <CharString name="uni01DC">
          -41 callgsubr
          122 95 35 132 8 callsubr
          239 758 -81 callsubr
          hintmask 1011101100000000
          9 -259 -82 callgsubr
        </CharString>
        <CharString name="uni01EA">
          95 -182 65 105 -48 callsubr
          hstem
          47 98 268 78 143 98 vstem
          529 8 rmoveto
          1 vlineto
          129 43 74 111 180 vvcurveto
          238 -129 117 -214 -214 -128 29 callsubr
          128 -117 214 20 20 1 2 19 vhcurveto
          -20 -21 -15 -26 -36 vvcurveto
          -69 55 -21 47 61 callsubr
          vhcurveto
          51 -32 vlineto
          28 callsubr
          -384 331 rmoveto
          4 vlineto
          198 1 93 76 150 hhcurveto
          151 93 -76 -198 1 hvcurveto
          -4 vlineto
          -29 callsubr
          endchar
        </CharString>
        <CharString name="uni01EB">
          -182 65 105 -39 callsubr
          hstem
          35 91 150 78 76 91 vstem
          392 8 rmoveto
          85 35 44 83 137 vvcurveto
          189 -84 86 -159 -159 -84 -86 -189 -189 84 -86 159 11 10 0 1 10 vhcurveto
          -19 -21 -14 -25 -35 vvcurveto
          -69 55 -21 47 61 callsubr
          vhcurveto
          51 -32 vlineto
          28 callsubr
          -266 251 rmoveto
          8 vlineto
          140 46 58 106 106 46 -58 -140 vhcurveto
          -8 vlineto
          -15 callsubr
          endchar
        </CharString>
        <CharString name="uni01F1">
          650 0 83 520 83 0 callsubr
          404 98 vstem
          79 hmoveto
          -46 callgsubr
          666 -686 rmoveto
          -74 callsubr
          -571 34 -68 callsubr
          endchar
        </CharString>
        <CharString name="uni01F2">
          539 0 73 -73 83 370 73 77 83 hstemhm
          79 95 404 98 hintmask 10111100
          79 hmoveto
          -46 callgsubr
          hintmask 01111100
          95 -603 -68 callsubr
          hintmask 10111100
          413 -83 rmoveto
          -82 callsubr
          endchar
        </CharString>
        <CharString name="uni01F3">
          373 -12 73 -61 73 380 73 -61 73 185 -20 -33 callsubr
          337 12 rmoveto
          -82 callsubr
          hintmask 10011110
          -315 14 -69 callsubr
          endchar
        </CharString>
        <CharString name="uni01F4">
          -26 callsubr
          38 132 55 callgsubr
          534 865 10 callgsubr
          -56 -462 -100 callgsubr
          hintmask 01111110
          -20 callsubr
        </CharString>
        <CharString name="uni01F5">
          -36 callgsubr
          53 132 -8 callsubr
          hintmask 1111100110000000
          -12 callsubr
          hintmask 1111110001000000
          -165 -78 callgsubr
        </CharString>
        <CharString name="uni0200">
          -71 callgsubr
          50 132 hstem
          7 653 vstem
          241 736 -95 callgsubr
          -289 -865 -103 callsubr
        </CharString>
        <CharString name="uni0201">
          -13 callsubr
          185 591 -95 callgsubr
          -30 -732 -75 callsubr
          hintmask 01111101
          -86 callgsubr
          hintmask 10111011
          -106 callsubr
          hintmask 10111101
          -104 callgsubr
          endchar
        </CharString>
        <CharString name="uni0202">
          -71 callgsubr
          118 64 hstem
          7 653 vstem
          188 751 -95 callsubr
          -181 -84 callgsubr
          endchar
        </CharString>
        <CharString name="uni0203">
          -70 callsubr
          121 64 59 callsubr
          132 606 -95 callsubr
          78 20 callgsubr
          hintmask 01111101
          -86 callgsubr
          hintmask 10111011
          -106 callsubr
          hintmask 10111101
          -104 callgsubr
          endchar
        </CharString>
        <CharString name="uni0204">
          -65 callsubr
          50 132 0 callsubr
          vstem
          241 736 -95 callgsubr
          -217 -865 -83 callsubr
        </CharString>
        <CharString name="uni0205">
          -49 callsubr
          53 132 hstem
          44 callsubr
          vstem
          185 591 -95 callgsubr
          50 -732 -105 callsubr
        </CharString>
        <CharString name="uni0206">
          -65 callsubr
          118 64 0 callsubr
          vstem
          188 751 -95 callsubr
          -109 -751 -83 callsubr
        </CharString>
        <CharString name="uni0207">
          -49 callsubr
          121 64 hstem
          44 callsubr
          vstem
          132 606 -95 callsubr
          158 -618 -105 callsubr
        </CharString>
        <CharString name="uni0208">
          -405 -10 callsubr
          92 95 vstem
          46 736 -95 callgsubr
          -9 -865 -30 callsubr
        </CharString>
        <CharString name="uni0209">
          -405 21 -7 callgsubr
          hstem
          95 88 vstem
          46 591 -95 callgsubr
          -6 -720 -23 callsubr
        </CharString>
        <CharString name="uni020A">
          -7 callsubr
          138 64 hstem
          92 95 vstem
          -7 751 -95 callsubr
          99 -751 -30 callsubr
        </CharString>
        <CharString name="uni020B">
          2 callsubr
          153 64 hstem
          95 88 vstem
          -7 606 -95 callsubr
          102 -606 -23 callsubr
        </CharString>
        <CharString name="uni020C">
          -31 callsubr
          296 736 -95 callgsubr
          38 -877 -107 callgsubr
          endchar
        </CharString>
        <CharString name="uni020D">
          -25 callgsubr
          304 91 vstem
          185 591 -95 callgsubr
          38 -732 -104 callsubr
        </CharString>
        <CharString name="uni020E">
          -51 callsubr
          106 64 -28 callgsubr
          243 751 -95 callsubr
          146 -763 -107 callgsubr
          endchar
        </CharString>
        <CharString name="uni020F">
          -55 callsubr
          121 64 79 callgsubr
          vstem
          132 606 -95 callsubr
          146 -618 -104 callsubr
        </CharString>
        <CharString name="uni0210">
          20 callsubr
          50 132 0 callsubr
          379 96 vstem
          268 736 -95 callgsubr
          -244 -865 rmoveto
          -94 callgsubr
          endchar
        </CharString>
        <CharString name="uni0211">
          -2 callsubr
          81 132 hstemhm
          67 88 hintmask 11001100
          74 591 -95 callgsubr
          -62 -720 -64 callgsubr
        </CharString>
        <CharString name="uni0212">
          20 callsubr
          118 64 0 callsubr
          379 96 vstem
          215 751 -95 callsubr
          -136 -751 rmoveto
          -94 callgsubr
          endchar
        </CharString>
        <CharString name="uni0213">
          -2 callsubr
          149 64 hstemhm
          67 88 hintmask 11001100
          21 606 -95 callsubr
          46 -606 -64 callgsubr
        </CharString>
        <CharString name="uni0214">
          -11 callgsubr
          268 736 -95 callgsubr
          37 -877 rmoveto
          -103 callgsubr
          endchar
        </CharString>
        <CharString name="uni0215">
          -18 callgsubr
          184 591 -95 callgsubr
          -11 -732 -90 callgsubr
        </CharString>
        <CharString name="uni0216">
          -37 callgsubr
          138 64 2 callgsubr
          215 751 -95 callsubr
          145 -763 rmoveto
          -103 callgsubr
          endchar
        </CharString>
        <CharString name="uni0217">
          -41 callgsubr
          153 64 -24 callsubr
          hintmask 10111100
          131 606 -95 callsubr
          97 -618 -90 callgsubr
        </CharString>
        <CharString name="uni021A">
          -72 76 callgsubr
          603 83 hstem
          258 95 vstem
          18 callsubr
          4 -833 rmoveto
          -64 callsubr
        </CharString>
        <CharString name="uni021B">
          -405 -149 91 47 87 callgsubr
          -64 88 hintmask 11110000
          186 -11 rmoveto
          -67 callgsubr
          75 callsubr
          hintmask 11101000
          -80 -219 rmoveto
          -64 callsubr
        </CharString>
        <CharString name="uni0232">
          42 callgsubr
          106 72 hstem
          287 95 vstem
          181 772 -51 callgsubr
          106 -844 rmoveto
          -87 callsubr
          endchar
        </CharString>
        <CharString name="uni0232.loclGUA">
          -10 callgsubr
          106 72 0 callsubr
          319 95 vstem
          181 772 -51 callgsubr
          146 -856 -99 callsubr
        </CharString>
        <CharString name="uni0233">
          -30 callgsubr
          121 72 hstemhm
          13 474 hintmask 10111000
          97 627 -51 callgsubr
          20 -881 -100 callsubr
          hintmask 01111000
          -57 vlineto
          hintmask 10111000
          15 callsubr
        </CharString>
        <CharString name="uni0233.loclGUA">
          -11 callsubr
          121 72 86 callsubr
          125 627 -51 callgsubr
          141 -881 rmoveto
          -97 callsubr
          -100 88 -47 93 callsubr
        </CharString>
        <CharString name="uni0237">
          -461 -1 callsubr
          639 -20 hstemhm
          67 88 hintmask 10110000
          45 -182 -70 callgsubr
          hintmask 01110000
          -57 vlineto
          hintmask 10110000
          -35 callsubr
        </CharString>
        <CharString name="uni0259">
          -12 -6 callsubr
          178 73 hstem
          39 92 293 93 vstem
          268 -12 rmoveto
          166 83 87 188 186 -82 89 -162 -137 -97 -63 -128 hvcurveto
          86 hlineto
          85 64 33 79 99 53 -53 -125 6 vhcurveto
          -387 -44 hlineto
          -184 79 -71 150 vhcurveto
          3 73 rmoveto
          -86 -54 40 113 hvcurveto
          293 hlineto
          -109 -10 -53 -44 -90 hhcurveto
          endchar
        </CharString>
        <CharString name="uni0272">
          32 callsubr
          465 73 -12 -20 42 callsubr
          hintmask 10110110
          45 55 callsubr
          372 vlineto
          97 66 57 74 65 44 -23 -89 vhcurveto
          -353 88 359 vlineto
          131 -64 48 -100 -72 -64 -24 -59 -41 vhcurveto
          -7 hlineto
          hintmask 10101110
          -10 71 rlineto
          -67 -591 hlineto
          -31 -16 -17 -31 vhcurveto
          -44 hlineto
          hintmask 01110110
          -57 vlineto
          hintmask 10110110
          -35 callsubr
        </CharString>
        <CharString name="uni02BC">
          -482 490 196 -91 91 hstemhm
          58 85 hintmask 00000000
          hintmask 10100000
          58 490 rmoveto
          44 hlineto
          hintmask 01100000
          1 callsubr
          endchar
        </CharString>
        <CharString name="uni02C9">
          37 callgsubr
        </CharString>
        <CharString name="uni030F">
          -683 591 132 hstem
          -306 299 vstem
          -222 591 -95 callgsubr
          endchar
        </CharString>
        <CharString name="uni0311">
          -683 659 64 hstem
          -312 291 vstem
          -312 606 -95 callsubr
          endchar
        </CharString>
        <CharString name="uni031B">
          -683 578 108 hstem
          -212 120 vstem
          -212 686 -25 callsubr
          -14 -53 -46 -27 -75 -9 rrcurveto
          -56 vlineto
          134 16 68 71 112 vvcurveto
          54 vlineto
          endchar
        </CharString>
        <CharString name="uni0326">
          -683 -149 91 hstem
          -155 88 vstem
          -155 -230 rmoveto
          -64 callsubr
        </CharString>
        <CharString name="uni0328">
          -683 -182 65 -65 194 hstemhm
          -252 78 hintmask 10100000
          -150 -9 callgsubr
        </CharString>
        <CharString name="uni0394">
          -16 0 83 516 87 hstem
          7 653 vstem
          7 hmoveto
          653 hlineto
          -266 686 rlineto
          -121 hlineto
          -135 -603 rmoveto
          11 29 10 30 11 29 115 312 rcurveline
          14 39 15 38 14 39 rrcurveto
          5 hlineto
          14 -39 15 -38 14 -39 116 -310 rcurveline
          33 -90 rlineto
          endchar
        </CharString>
        <CharString name="uni03A9">
          -61 callgsubr
        </CharString>
        <CharString name="uni03BC">
          -43 callsubr
        </CharString>
        <CharString name="uni1E0C">
          39 -173 95 78 83 520 83 0 callsubr
          143 87 174 98 vstem
          79 hmoveto
          -58 callsubr
          -16 -256 -93 callgsubr
          endchar
        </CharString>
        <CharString name="uni1E0D">
          58 callgsubr
          73 -40 53 callgsubr
          hstemhm
          35 91 108 87 80 88 hintmask 11011111
          -8 callgsubr
          hintmask 10111111
          -56 callgsubr
          hintmask 11011111
          52 callgsubr
          22 73 -69 callsubr
          -31 -234 -93 callgsubr
          endchar
        </CharString>
        <CharString name="uni1E24">
          39 88 callsubr
          309 83 294 -20 0 callsubr
          143 87 144 31 callgsubr
          238 -859 -93 callgsubr
          endchar
        </CharString>
        <CharString name="uni1E25">
          -173 95 99 53 callgsubr
          hstem
          67 88 79 87 83 88 vstem
          67 hmoveto
          -55 callgsubr
          256 -88 hlineto
          167 -896 -93 callgsubr
          endchar
        </CharString>
        <CharString name="uni1E44">
          78 callgsubr
          107 95 hstem
          79 89 149 87 150 89 vstem
          317 50 callsubr
          -238 -868 rmoveto
          -86 callsubr
          endchar
        </CharString>
        <CharString name="uni1E45">
          21 callgsubr
          122 95 hstemhm
          67 88 79 87 83 88 hintmask 11011110
          234 21 callsubr
          -167 -723 rmoveto
          -87 callgsubr
          hintmask 10111110
          26 callsubr
        </CharString>
        <CharString name="uni1E5A">
          39 -173 95 99 50 callgsubr
          0 callsubr
          143 87 149 -31 callgsubr
          -539 -93 callgsubr
          endchar
        </CharString>
        <CharString name="uni1E5B">
          -350 -173 95 99 -20 callgsubr
          -699 vmoveto
          87 95 -87 hlineto
          endchar
        </CharString>
        <CharString name="uni1E62">
          -16 58 callgsubr
          -48 callsubr
          hstemhm
          49 93 -76 96 128 87 126 -63 callgsubr
          -161 -93 callgsubr
          endchar
        </CharString>
        <CharString name="uni1E63">
          -183 58 callgsubr
          91 callgsubr
          87 68 -60 callsubr
          -161 -93 callgsubr
          endchar
        </CharString>
        <CharString name="uni1E6C">
          -72 88 callsubr
          603 83 hstemhm
          258 95 -91 87 hintmask 11110000
          18 callsubr
          hintmask 11101000
          4 -776 -93 callgsubr
          endchar
        </CharString>
        <CharString name="uni1E6D">
          -405 -173 95 67 87 callgsubr
          -64 87 hintmask 11110000
          186 -11 rmoveto
          -67 callgsubr
          75 callsubr
          hintmask 11101000
          -80 -162 -93 callgsubr
          endchar
        </CharString>
        <CharString name="uni1E92">
          -72 -173 95 78 83 520 83 hstem
          262 87 vstem
          23 hmoveto
          -74 callsubr
          239 -222 -93 callgsubr
          endchar
        </CharString>
        <CharString name="uni1E93">
          -183 -173 95 78 73 380 73 hstem
          206 87 vstem
          24 hmoveto
          -82 callsubr
          182 -220 -93 callgsubr
          endchar
        </CharString>
        <CharString name="uni1E9E">
          85 0 83 215 83 236 81 hstemhm
          79 95 404 97 -63 97 hintmask 11111000
          79 hmoveto
          95 414 hlineto
          138 84 65 143 124 53 -49 -74 -68 -45 -45 -63 vhcurveto
          -186 -83 189 hlineto
          hintmask 11110100
          88 51 -44 -62 -55 -41 -54 -78 hvcurveto
          -209 -83 222 hlineto
          127 76 82 105 84 -48 56 -77 20 hvcurveto
          4 vlineto
          hintmask 11111000
          50 20 41 60 72 vvcurveto
          118 -111 77 -172 -188 -125 -93 -184 vhcurveto
          endchar
        </CharString>
        <CharString name="uni1EA0">
          39 callsubr
          hstem
          290 87 vstem
          7 hmoveto
          -105 callgsubr
          -169 -439 -93 callgsubr
          endchar
        </CharString>
        <CharString name="uni1EA1">
          58 callgsubr
          -62 callgsubr
          -45 callsubr
          87 87 65 88 hintmask 1101110110000000
          210 -12 -75 callsubr
          hintmask 1011110110000000
          -86 callgsubr
          hintmask 1101101110000000
          -106 callsubr
          hintmask 1101110110000000
          -104 callgsubr
          1 -234 -93 callgsubr
          endchar
        </CharString>
        <CharString name="uni1EA2">
          -71 callgsubr
          50 58 callsubr
          306 56 -14 72 hintmask 11111100
          306 736 rmoveto
          56 28 hlineto
          hintmask 11111010
          -102 callgsubr
          -16 callgsubr
          hvcurveto
          hintmask 11111100
          -13 hlineto
          -299 -797 -103 callsubr
        </CharString>
</ttFont>
